<svg width="71" height="63" viewBox="0 0 71 63" fill="none" xmlns="http://www.w3.org/2000/svg">
<path fill-rule="evenodd" clip-rule="evenodd" d="M32.2451 47.6312C32.6391 47.9332 32.8541 48.4486 32.7918 48.9438C32.7886 48.9978 32.7814 49.0588 32.7491 49.1147C32.6646 49.4387 32.4652 49.687 32.2479 49.9343C32.1393 50.0579 32.0446 50.1896 31.9459 50.3283C31.9596 50.3047 31.9758 50.2803 31.9925 50.2552C32.0104 50.2283 32.029 50.2005 32.0456 50.1716C31.5892 50.8492 31.0791 51.4585 30.5189 52.0575C30.2675 52.3278 30.0129 52.5931 29.7586 52.8579C29.3911 53.2407 29.0244 53.6227 28.6694 54.0181C28.4268 54.3253 28.1843 54.6325 27.9516 54.9548C27.7616 55.2441 27.5798 55.5382 27.3981 55.8323C27.1384 56.2524 26.8788 56.6725 26.5949 57.0787C26.0761 57.8321 25.4954 58.5312 24.8868 59.2141C24.9079 59.1937 24.9283 59.1705 24.9487 59.1473C24.9691 59.1242 24.9895 59.101 25.0106 59.0805C24.8633 59.2553 24.7091 59.426 24.5548 59.5967L24.5528 59.599L24.5448 59.6129C24.5292 59.6319 24.5118 59.6498 24.4945 59.6677C24.4463 59.7255 24.3977 59.7831 24.3493 59.8406C24.1548 60.0715 23.9604 60.3023 23.7839 60.5434L23.675 60.7321C23.6699 60.7571 23.6578 60.7781 23.6457 60.799C23.5552 61.1009 23.4567 61.4168 23.2394 61.664C22.843 62.1247 22.2725 62.3544 21.6593 62.2706C21.378 62.2256 21.1062 62.1337 20.8412 62.044L20.8165 62.0356C20.6332 61.9754 20.4491 61.912 20.2639 61.8482C20.1088 61.7948 19.9528 61.741 19.7962 61.6888C19.7976 61.6884 19.7989 61.6881 19.8002 61.688C19.7953 61.6863 19.7905 61.6845 19.7856 61.6827C19.7742 61.6784 19.7627 61.6741 19.7502 61.6715C19.7319 61.661 19.715 61.6551 19.6965 61.6498L19.6973 61.6503L19.6911 61.6483L19.6812 61.6456L19.6652 61.6411L19.6673 61.6407C19.5436 61.6013 19.4195 61.5641 19.2954 61.5269C19.027 61.4466 18.7586 61.3662 18.4948 61.2636C18.0742 61.1045 17.6656 60.9246 17.254 60.7335C16.4828 60.3822 15.7332 59.9805 14.9834 59.5786C14.5425 59.3423 14.1015 59.106 13.656 58.8798C12.7111 58.4182 11.7512 57.9665 10.7599 57.6178C10.5685 57.5588 10.3771 57.502 10.1859 57.4453C9.82385 57.3379 9.46273 57.2307 9.10565 57.1099L9.10406 57.1094C8.31107 56.8378 7.51812 56.5662 6.73722 56.2737C6.01468 56.0057 5.30213 55.7128 4.58861 55.4195C3.83182 55.1085 3.07394 54.7969 2.30189 54.5143L2.29757 54.5129C2.01515 54.424 1.73276 54.3351 1.45435 54.2393C1.03259 54.0983 0.695237 53.8756 0.450716 53.4921C-0.00554287 52.7814 0.303698 51.907 0.915464 51.4123C1.37354 51.0426 1.91973 50.8559 2.46195 50.6705L2.50829 50.6547C2.58799 50.6266 2.66626 50.5964 2.74434 50.5662C2.8725 50.5167 3.00015 50.4674 3.13281 50.4282C3.1831 50.3734 3.22941 50.3256 3.28265 50.2818C3.56101 50.0377 3.9603 49.9636 4.32917 49.8952C4.41036 49.8801 4.49013 49.8653 4.56675 49.8491L4.55572 49.852C5.237 49.7049 5.91936 49.5398 6.58883 49.3486C6.80475 49.2868 7.02248 49.2219 7.23992 49.1527L7.21002 49.052C7.19818 49.0121 7.1863 48.972 7.17427 48.9318C7.14 48.8154 7.10464 48.7008 7.06974 48.5877C7.03735 48.4828 7.00536 48.3791 6.97498 48.2764C6.95501 48.2018 6.93283 48.126 6.91035 48.0492C6.85303 47.8534 6.79377 47.6509 6.76449 47.4467C6.75761 47.4132 6.75159 47.3803 6.74566 47.3478C6.73469 47.2878 6.72401 47.2294 6.70868 47.1722C6.52645 46.2242 6.40532 45.2734 6.28405 44.3215C6.22565 43.863 6.16721 43.4043 6.1019 42.9456L6.06226 42.6805C5.96383 42.0239 5.86497 41.3643 5.80263 40.7042C5.74922 40.0988 5.70731 39.4941 5.66566 38.8931L5.66555 38.8916C5.65522 38.7426 5.64491 38.5938 5.63445 38.4453L5.63425 38.4429C5.56012 37.5716 5.486 36.7003 5.35387 35.8327C5.30365 35.4759 5.24933 35.1182 5.19495 34.7602C5.11488 34.2329 5.03468 33.7048 4.96728 33.1775C4.77394 31.6402 4.61374 30.0941 4.54461 28.5353C4.47144 26.9836 4.40222 25.4248 4.37315 23.8613C4.36697 23.4524 4.35905 23.0424 4.35114 22.6325C4.34322 22.2226 4.33531 21.8127 4.32912 21.4037C4.31063 20.3867 4.30346 19.3017 4.61213 18.3152C4.84976 17.5485 5.19511 16.8535 5.66739 16.213C6.11655 15.5964 6.59369 14.996 7.1525 14.48C7.55861 14.1101 7.97334 13.75 8.38947 13.3886C8.55712 13.2431 8.72529 13.097 8.89293 12.9503C9.48185 12.4145 10.0359 11.8584 10.584 11.2803C10.6739 11.1732 10.7635 11.0656 10.8532 10.9578C11.3891 10.3141 11.9284 9.66657 12.5473 9.106C13.1538 8.55503 13.7823 8.0335 14.4112 7.51168C14.5952 7.35903 14.7793 7.20627 14.9628 7.05282C15.4085 6.64046 15.8454 6.21823 16.281 5.79732C16.4514 5.63265 16.6218 5.46793 16.7923 5.30434C17.2758 4.83806 17.7592 4.37186 18.2626 3.9357C19.0745 3.23967 19.957 2.63098 20.9081 2.14576C22.7429 1.21107 24.7841 0.693636 26.792 0.250157C28.393 -0.102047 30.0342 -0.03967 31.6232 0.290709C32.3512 0.442191 33.0698 0.639912 33.7818 0.835824L33.8667 0.859197C36.9038 1.69948 39.9013 2.65676 42.8846 3.67096C42.8791 3.66984 42.8738 3.66838 42.8686 3.66673C42.862 3.66462 42.8555 3.66222 42.8491 3.65981C42.8376 3.65551 42.8261 3.65121 42.8136 3.64866C42.8401 3.65928 42.8658 3.66714 42.8916 3.675C42.9173 3.68286 42.943 3.69072 42.9695 3.70135C46.3076 4.82724 49.5867 6.15201 52.8387 7.50773C54.1283 8.04371 55.441 8.52213 56.754 9.00062C58.2564 9.54816 59.7594 10.0959 61.2281 10.73C62.6557 11.3399 64.0712 11.9709 65.4816 12.6268C65.8427 12.7981 66.203 12.9666 66.5633 13.1351L66.5694 13.138C66.9297 13.3065 67.29 13.4751 67.6511 13.6463C67.9204 13.7696 68.1868 13.898 68.4523 14.026C68.7243 14.1571 68.9958 14.2879 69.2681 14.4122C69.4695 14.3701 69.6897 14.3761 69.8927 14.428C70.4085 14.5674 70.7611 14.9574 70.8881 15.4314C70.8907 15.4354 70.8937 15.44 70.8963 15.4442C70.9033 15.4554 70.9097 15.4676 70.9139 15.4835L70.9169 15.4946C70.9384 15.5531 70.9559 15.6185 70.9706 15.6732L70.9711 15.675C71.024 15.9384 71.0229 16.1987 70.9647 16.4447C70.8791 16.7866 70.6585 17.0879 70.3203 17.3026C70.1985 17.3794 70.0748 17.4319 69.9501 17.4647C69.8316 17.8888 69.705 18.3159 69.5122 18.7183C69.2664 19.223 68.9586 19.6652 68.6382 20.1256L68.6159 20.1576C68.6326 20.1287 68.6511 20.1009 68.6691 20.074C68.6856 20.0492 68.7017 20.0251 68.7152 20.0017C68.7007 20.0268 68.6854 20.049 68.6707 20.0703C68.657 20.0902 68.6437 20.1095 68.6321 20.1296C68.4486 20.4151 68.2821 20.7196 68.1266 21.0212C68.033 21.2156 67.9519 21.4172 67.8707 21.6187C67.8301 21.7195 67.7895 21.8204 67.7473 21.9203C67.6658 22.1169 67.5804 22.3112 67.495 22.5056C67.3812 22.7647 67.2673 23.0237 67.1627 23.288C66.9623 23.7964 66.7616 24.3054 66.5293 24.8046C66.3988 25.0791 66.2566 25.3467 66.1143 25.6144C66.0671 25.7032 66.0199 25.7921 65.9731 25.8812C65.8741 26.0849 65.796 26.3007 65.718 26.5166C65.5353 27.0913 65.3845 27.6752 65.2407 28.2631C65.198 28.4388 65.1588 28.6152 65.1195 28.7917C65.0528 29.0913 64.9859 29.3913 64.9021 29.6889C64.7861 30.1158 64.6661 30.5496 64.3294 30.8584C64.0841 31.0895 63.7621 31.2762 63.4206 31.3028C63.4096 31.3057 63.3978 31.3059 63.3861 31.3061C63.3743 31.3063 63.3625 31.3065 63.3515 31.3095C63.2111 31.3589 63.0469 31.3852 62.8877 31.3865C62.6054 31.3912 62.3205 31.3199 62.0466 31.2456C61.6837 31.1479 61.3208 31.0502 60.9509 30.9485C60.828 30.9157 60.7048 30.8833 60.5816 30.8509C59.6853 30.615 58.7866 30.3785 57.9372 30.0192C57.4856 29.833 57.0421 29.6329 56.5985 29.4327C56.1044 29.2131 55.6046 29.0132 55.1022 28.8123C54.9638 28.7569 54.8251 28.7014 54.6864 28.6455C54.3511 28.5082 54.0169 28.3705 53.683 28.233C52.9662 27.9378 52.2507 27.6432 51.5282 27.3532C51.196 27.2169 50.8656 27.0718 50.5358 26.9269C50.312 26.8286 50.0885 26.7304 49.8648 26.6351C49.5671 26.5052 49.2636 26.3812 48.9602 26.2573C48.6567 26.1333 48.3532 26.0093 48.0555 25.8794C47.1513 25.4878 46.2814 25.037 45.4114 24.5863C45.1625 24.4573 44.9136 24.3283 44.6639 24.2007C42.761 23.2698 40.7834 22.5006 38.8057 21.7314L38.8034 21.7304C37.7722 21.3215 36.7473 20.8695 35.7224 20.4175C34.7574 19.9908 33.7752 19.6101 32.7798 19.2683C32.6623 19.2303 32.5447 19.1925 32.4271 19.1547C31.9552 19.0031 31.4833 18.8515 31.0218 18.682C30.4312 18.4621 29.8528 18.2214 29.2743 17.9806C28.7422 17.7571 28.2027 17.5502 27.6624 17.343C27.0604 17.1121 26.4576 16.8809 25.8632 16.6261C24.7103 16.1375 23.5494 15.6629 22.3844 15.1953C21.973 15.0329 21.5674 14.8689 21.1623 14.7001C21.1613 14.7221 21.1602 14.7441 21.1592 14.7661L21.1591 14.7675C21.1521 14.7635 21.1562 14.7565 21.1562 14.7565C21.1408 15.0738 21.1393 15.3991 21.1599 15.7184C21.1756 15.9419 21.2161 16.1637 21.2566 16.3851C21.2918 16.5775 21.3269 16.7697 21.3456 16.9624C21.3994 17.4501 21.4342 17.9547 21.412 18.4451C21.3967 18.7407 21.3653 19.0354 21.334 19.3301C21.3184 19.4772 21.3027 19.6246 21.289 19.7718C21.2378 20.264 21.1726 20.7481 21.0853 21.2382L21.0667 21.3672C21.0627 21.3742 21.0616 21.3922 21.0645 21.4032C21.0753 21.4653 21.086 21.5274 21.0897 21.5855L21.1164 21.6847L21.2767 22.0848C21.4556 22.5981 21.4746 23.0656 21.3851 23.5917C21.3831 23.5952 21.3829 23.5997 21.3826 23.6042C21.3823 23.6087 21.382 23.6132 21.38 23.6167C21.3786 23.6192 21.3775 23.6233 21.3765 23.6277C21.3761 23.6293 21.3758 23.631 21.3754 23.6327C21.3746 23.6367 21.3738 23.6407 21.3728 23.6439C21.3722 23.6458 21.3716 23.6474 21.3709 23.6487L21.3789 23.6347C21.3769 23.6382 21.3767 23.6427 21.3764 23.6472C21.3763 23.6492 21.3761 23.6512 21.3759 23.6531C21.3755 23.6555 21.3749 23.6578 21.3738 23.6597C21.3718 23.6632 21.3715 23.6677 21.3712 23.6722C21.371 23.6767 21.3707 23.6811 21.3687 23.6846C21.3617 23.6806 21.3658 23.6737 21.3658 23.6737C21.3265 23.8466 21.2837 24.0176 21.2409 24.1886C21.1981 24.3595 21.1553 24.5305 21.116 24.7035C21.1012 24.7596 21.0936 24.8162 21.0858 24.8737C21.0813 24.9073 21.0768 24.9413 21.0707 24.9756C21.0731 24.9956 21.0728 25.0164 21.0724 25.0371C21.0721 25.0579 21.0717 25.0787 21.0741 25.0987C21.0923 25.277 21.1196 25.4557 21.1468 25.6345C21.174 25.8133 21.2012 25.992 21.2195 26.1703C21.2994 26.8873 21.3752 27.6114 21.4331 28.3343L21.4337 28.3416C21.5747 29.9561 21.7157 31.5706 21.834 33.1804C21.9273 34.1769 22.0788 35.1696 22.2302 36.1611C22.2611 36.3634 22.2919 36.5657 22.3223 36.768C22.4924 37.9098 22.6666 39.0446 22.8988 40.1757C22.986 40.5894 23.0695 41.0055 23.1529 41.4217C23.2364 41.8378 23.3199 42.2546 23.4072 42.6682C23.4869 43.0224 23.572 43.3739 23.6568 43.7245C23.8363 44.4657 24.0147 45.2029 24.1392 45.9516C24.2569 46.6739 24.2849 47.4136 24.313 48.1541L24.3207 48.3549C24.4879 48.2894 24.6622 48.2389 24.8358 48.1987C25.7325 47.9743 26.6614 47.8879 27.5816 47.8023L27.5828 47.8022L27.584 47.8021C27.6913 47.7921 27.7985 47.7822 27.9055 47.772C28.0543 47.7568 28.2033 47.7424 28.3525 47.728C28.7391 47.6908 29.1273 47.6534 29.5138 47.6009C29.7946 47.5636 30.0709 47.5157 30.3464 47.4679C30.5856 47.4264 30.8248 47.3849 31.0654 47.3506C31.485 47.2854 31.903 47.3684 32.2451 47.6312ZM21.5303 11.7474C21.5543 11.7181 21.5783 11.6889 21.6024 11.6597C21.7129 11.5346 21.8236 11.4103 21.9342 11.2862C22.2272 10.9574 22.5189 10.6301 22.8016 10.2927C22.96 10.1089 23.1121 9.91902 23.2649 9.72838C23.412 9.54474 23.5598 9.36029 23.7143 9.17977C23.8199 9.06107 23.9263 8.94356 24.0325 8.82624C24.4605 8.35333 24.8857 7.88359 25.2449 7.35187C25.3731 7.1567 25.4906 6.95528 25.608 6.75387C25.7019 6.59276 25.7959 6.43165 25.8953 6.27374L26.0253 6.09715C26.0484 6.07324 26.0715 6.04927 26.0986 6.01836C26.2011 5.93775 26.3036 5.85719 26.409 5.7876C26.6459 5.63551 26.8927 5.49848 27.1425 5.37248C27.4174 5.24142 27.6943 5.12716 27.9732 5.01203C28.1249 4.94944 28.2772 4.88659 28.4301 4.82065C28.8076 4.66276 29.1291 4.43817 29.4582 4.2083L29.4989 4.17983C29.525 4.16693 29.5552 4.14709 29.5853 4.1272C29.6896 4.07562 29.8009 4.02809 29.9082 3.98753C30.1217 3.92442 30.3381 3.87228 30.5505 3.82717C30.7258 3.79793 30.89 3.77171 31.0613 3.74944C31.3989 3.70806 31.6944 3.53903 31.9109 3.29819C33.204 3.61893 34.4821 3.99668 35.7562 4.37325L35.8238 4.39324C37.4832 4.87606 39.1173 5.41884 40.7584 5.96565C40.7514 5.96161 40.7444 5.95758 40.7404 5.96457C40.7529 5.96712 40.7626 5.97041 40.7723 5.9737C40.7766 5.97512 40.7808 5.97655 40.7852 5.97791C40.791 5.9797 40.7972 5.98138 40.8043 5.98284C40.8203 5.98741 40.8381 5.99299 40.8558 5.99857C40.8736 6.00415 40.8913 6.00973 40.9073 6.0143C41.0003 6.04626 41.0927 6.07787 41.1849 6.10934L41.382 6.17659L41.3893 6.17906C41.5446 6.232 41.6998 6.28495 41.8568 6.33887L41.8498 6.33483C41.858 6.33956 41.8651 6.3405 41.8711 6.34127C41.8753 6.34181 41.8788 6.34227 41.8817 6.34394C41.8904 6.34642 41.8996 6.34918 41.9089 6.35209L41.9285 6.3582C41.9259 6.35767 41.9233 6.35729 41.9207 6.35714C44.7999 7.35787 47.6436 8.4685 50.4631 9.62111C50.8393 9.77414 51.214 9.92984 51.5885 10.0855L51.5908 10.0864C52.5751 10.4955 53.5585 10.9042 54.5656 11.263L54.8915 11.378C56.2392 11.8536 57.5937 12.3315 58.9195 12.8728C60.7369 13.6145 62.5249 14.4233 64.3159 15.243C64.9075 15.5142 65.4952 15.792 66.0854 16.0709L66.0882 16.0722C66.357 16.1992 66.6264 16.3265 66.8968 16.4535C67.0106 16.5086 67.1248 16.5632 67.239 16.6175C67.2287 16.6544 67.2184 16.6915 67.208 16.7287C67.1635 16.8889 67.1185 17.0507 67.0686 17.205C67.017 17.3429 66.9613 17.4878 66.8957 17.6176C66.8221 17.7613 66.7345 17.8969 66.6468 18.0325C66.6138 18.0793 66.5794 18.1268 66.5451 18.1742C66.4726 18.2742 66.3993 18.3753 66.3343 18.4769C65.9061 19.1056 65.5548 19.7786 65.2664 20.4879C65.1576 20.7559 65.042 21.02 64.9268 21.2831C64.8084 21.5537 64.6904 21.8234 64.5806 22.0954L64.5591 22.1489C64.3114 22.7662 64.0664 23.3766 63.7845 23.9746C63.731 24.0835 63.6732 24.1876 63.6155 24.2916C63.5577 24.3957 63.5 24.4999 63.4464 24.6087C63.0343 25.4517 62.792 26.3554 62.5637 27.2673C62.5062 27.4858 62.4551 27.7115 62.4041 27.9366C62.3721 28.078 62.3401 28.2192 62.3067 28.3581C62.2261 28.3364 62.1447 28.3142 62.0633 28.2921C61.9004 28.2477 61.7375 28.2034 61.5809 28.1627C61.4991 28.1405 61.4172 28.1184 61.3351 28.0963C60.746 27.9374 60.1507 27.7768 59.5655 27.5862L59.5516 27.5781C59.0305 27.3932 58.5257 27.1629 58.0217 26.9329C57.8375 26.8488 57.6534 26.7648 57.4686 26.6831C56.8541 26.4127 56.2302 26.1638 55.6073 25.9154C55.1305 25.7252 54.6544 25.5353 54.1836 25.3362C53.8455 25.194 53.5066 25.0553 53.168 24.9167C52.6132 24.6897 52.0591 24.463 51.5101 24.2212C51.0565 24.0205 50.5979 23.831 50.1395 23.6416C49.4806 23.3693 48.8221 23.0972 48.1794 22.7921C47.8212 22.6132 47.4656 22.4296 47.1104 22.2462C46.3969 21.8778 45.6844 21.5099 44.9535 21.1813C43.6509 20.5969 42.3432 20.0376 41.0153 19.5132C40.7233 19.3966 40.4292 19.2838 40.135 19.1709C39.7426 19.0204 39.3502 18.8699 38.963 18.7103C38.5623 18.5479 38.1692 18.3723 37.7778 18.1974C37.535 18.0889 37.2929 17.9806 37.05 17.8761C35.6654 17.2724 34.2614 16.7507 32.8252 16.2848C32.7332 16.2504 32.6482 16.2199 32.5593 16.1965C31.9064 15.9732 31.2706 15.712 30.6338 15.4503C30.3826 15.347 30.1312 15.2437 29.8785 15.1427C29.5471 15.0114 29.2135 14.8837 28.8797 14.7558C28.2816 14.5268 27.6823 14.2974 27.0918 14.0462C26.1717 13.6547 25.2476 13.2704 24.3194 12.8929C24.0823 12.7974 23.8444 12.7032 23.6065 12.609C22.9102 12.3332 22.2129 12.0571 21.5303 11.7474ZM23.2995 5.008C23.5588 4.59116 23.8338 4.21118 24.1987 3.88326C24.0841 3.92013 23.9697 3.95791 23.8556 3.99663C23.3052 4.19137 22.7677 4.41212 22.2431 4.65902C21.8809 4.85058 21.5397 5.05429 21.1904 5.27194C20.8018 5.54146 20.4303 5.8301 20.0686 6.13377C19.5854 6.56406 19.1226 7.01724 18.6595 7.47071C18.2769 7.84537 17.894 8.22027 17.4993 8.58258C16.719 9.30517 15.902 9.97858 15.0849 10.652L15.0829 10.6537C15.041 10.6902 14.999 10.7265 14.9569 10.7628C14.7725 10.922 14.5869 11.0822 14.4176 11.2574C14.2325 11.4487 14.0475 11.64 13.8585 11.8384C13.7096 12.0106 13.5619 12.1846 13.4141 12.3589C12.9483 12.9076 12.4808 13.4584 11.9702 13.9629C11.2514 14.6753 10.4998 15.3316 9.73712 15.9909L9.74116 15.9839C9.73915 15.9873 9.73439 15.9916 9.72963 15.9959C9.72487 16.0001 9.72012 16.0044 9.7181 16.0078C9.70855 16.0163 9.69799 16.0265 9.68744 16.0367C9.67688 16.0469 9.66632 16.0571 9.65677 16.0656C9.66632 16.0571 9.67487 16.0504 9.68342 16.0437C9.69197 16.0369 9.70052 16.0302 9.71007 16.0218C9.38146 16.3166 9.06378 16.6084 8.75209 16.9223C8.44819 17.2873 8.15531 17.6493 7.87533 18.0375C7.75133 18.2361 7.63836 18.4317 7.52834 18.6384C7.48691 18.7263 7.44551 18.8142 7.41107 18.9062C7.35321 19.0871 7.30236 19.2721 7.26251 19.4541C7.23556 19.6622 7.21262 19.8632 7.19266 20.0753C7.1928 20.0428 7.19469 20.0113 7.19658 19.9797C7.19847 19.9482 7.20036 19.9167 7.20051 19.8842C7.14979 20.7793 7.1714 21.6838 7.19287 22.5829C7.19716 22.7622 7.20144 22.9414 7.20514 23.1202C7.22234 23.978 7.24648 24.8399 7.2747 25.6948C7.31833 27.1363 7.39396 28.587 7.4806 30.0348C7.62394 31.5618 7.82537 33.0852 8.04883 34.6026C8.06653 34.7188 8.08456 34.8353 8.10261 34.9518C8.20352 35.6036 8.30514 36.2599 8.35487 36.913C8.42827 37.7381 8.48766 38.5551 8.54305 39.3791C8.64058 40.4045 8.75606 41.431 8.90762 42.4596C8.98098 42.9538 9.04157 43.4499 9.10216 43.946C9.16275 44.4423 9.22339 44.9388 9.29676 45.4331C9.36274 45.8998 9.44675 46.3676 9.54177 46.8324C9.5482 46.8422 9.55004 46.8531 9.55213 46.8656C9.55327 46.8725 9.55449 46.8798 9.55658 46.8876C9.55953 46.8986 9.56073 46.9086 9.56192 46.9186C9.56311 46.9286 9.56431 46.9386 9.56726 46.9496C9.56798 46.9377 9.56695 46.9289 9.56532 46.9211L9.56249 46.9096C9.56349 46.9134 9.56449 46.9171 9.56532 46.9211C9.70138 47.4715 9.86201 48.0267 10.0415 48.5652C10.0515 48.5803 10.0644 48.6064 10.0703 48.6284C10.1126 48.714 10.1462 48.8021 10.1712 48.8915C10.1789 48.899 10.1865 48.9065 10.1941 48.9142C10.6405 49.3676 10.7543 50.1229 10.4105 50.6698C10.0666 51.2361 9.50539 51.4134 8.92265 51.5975C8.86644 51.6153 8.81004 51.6331 8.7536 51.6513C8.56364 51.7101 8.37409 51.7704 8.18444 51.8307C7.66064 51.9974 7.13599 52.1643 6.5997 52.2993C6.1628 52.4105 5.73399 52.5077 5.28715 52.6038C5.4495 52.6696 5.61086 52.7371 5.77222 52.8046C5.93358 52.8722 6.09494 52.9397 6.2573 53.0055C7.4532 53.5003 8.67439 53.9351 9.89666 54.3519C9.88967 54.3479 9.88341 54.3466 9.87715 54.3453C9.87089 54.344 9.86463 54.3427 9.85765 54.3387C9.86463 54.3427 9.87439 54.346 9.88415 54.3493C9.89391 54.3527 9.90366 54.356 9.91065 54.36L9.91222 54.3606C9.9497 54.3746 9.98707 54.3886 10.0206 54.4004L10.0234 54.4013C10.0287 54.4024 10.034 54.4036 10.0399 54.4067C10.2807 54.4855 10.5235 54.5583 10.7661 54.6311C11.1186 54.7369 11.4707 54.8425 11.8156 54.966C12.4463 55.181 13.0627 55.453 13.668 55.728C14.6644 56.1788 15.6285 56.6857 16.5946 57.1938C17.0755 57.4466 17.557 57.6998 18.0432 57.9465C18.5735 58.2061 19.1259 58.4597 19.6885 58.6634C19.9549 58.7536 20.2217 58.8387 20.4874 58.9236C20.727 59.0001 20.9658 59.0763 21.2027 59.1557C21.2167 59.1637 21.2237 59.1678 21.2417 59.1689C21.2597 59.1699 21.2667 59.1739 21.2737 59.178L21.2898 59.15C21.5941 58.6551 21.9742 58.2226 22.3544 57.7901L22.3428 57.8105C22.4202 57.7248 22.4948 57.6398 22.5695 57.5549C22.6442 57.4699 22.719 57.3848 22.7965 57.2991C22.8005 57.2921 22.8063 57.2861 22.812 57.2801C22.8178 57.2741 22.8236 57.2681 22.8276 57.2611C22.8386 57.2582 22.8427 57.2512 22.8467 57.2442L22.8386 57.2582L22.8501 57.2483C22.8639 57.2366 22.8753 57.2269 22.8849 57.2103C23.398 56.6121 23.8902 56.0017 24.3445 55.3601C24.4748 55.1552 24.6027 54.9456 24.7308 54.7355C24.901 54.4565 25.0717 54.1766 25.2488 53.9068C25.6186 53.3469 26.0054 52.8062 26.4271 52.2856C26.8921 51.7061 27.4159 51.1699 27.9398 50.6338C27.1728 50.7034 26.4088 50.7841 25.6624 50.931L25.6596 50.9317C25.5724 50.9551 25.485 50.9785 25.3938 51.0088C25.2168 51.1862 25.0369 51.3525 24.8122 51.4836C24.5723 51.6247 24.3177 51.7106 24.0491 51.7885C23.4072 51.9757 22.7296 51.6584 22.4185 51.0983C21.8184 51 21.3123 50.4811 21.228 49.8803C21.1687 49.4826 21.2735 49.1238 21.4929 48.8405C21.4843 48.7423 21.4787 48.6552 21.4771 48.5611C21.469 48.4156 21.4613 48.2704 21.4537 48.1254C21.4336 47.7426 21.4136 47.3612 21.3841 46.9792C21.3407 46.6187 21.2972 46.2582 21.2357 45.8966C21.17 45.6184 21.1022 45.3417 21.0345 45.0651L21.0342 45.0642C20.9207 44.6008 20.8074 44.138 20.7042 43.6701C20.5964 43.1884 20.5005 42.7036 20.4046 42.2187C20.3407 41.8957 20.2768 41.5728 20.2094 41.2507C20.213 41.2714 20.2166 41.292 20.2203 41.3124L20.2457 41.43C20.2359 41.3932 20.2278 41.3533 20.2203 41.3124C20.0563 40.5531 19.8942 39.7933 19.772 39.0228C19.6405 38.2014 19.5161 37.3841 19.3956 36.5598L19.341 36.1986C19.2372 35.5145 19.134 34.8344 19.0519 34.153C18.982 33.5724 18.9462 32.9919 18.9103 32.4095C18.8967 32.1884 18.8831 31.9668 18.8675 31.745C18.8423 31.4665 18.8172 31.1878 18.792 30.909C18.6699 29.5537 18.5475 28.195 18.4099 26.8405C18.3881 26.583 18.352 26.3293 18.3159 26.0757C18.2888 25.8855 18.2617 25.6952 18.2407 25.5034C18.1916 25.0558 18.2246 24.6276 18.3056 24.1805C18.3502 23.9626 18.4046 23.7441 18.4588 23.5264C18.4979 23.3696 18.5369 23.2131 18.5719 23.0577C18.569 23.0467 18.569 23.0467 18.573 23.0397L18.5424 22.9581C18.4277 22.6532 18.314 22.351 18.2512 22.0152C18.1537 21.4807 18.2205 20.9798 18.3233 20.4555L18.3207 20.4666C18.3178 20.4787 18.315 20.4909 18.3124 20.5032L18.3079 20.5291C18.3091 20.5203 18.3107 20.5117 18.3124 20.5032C18.3659 20.1949 18.3949 19.8725 18.4235 19.5543C18.4311 19.4707 18.4386 19.3873 18.4465 19.3046C18.4592 19.1535 18.4753 19.0045 18.4915 18.8554C18.5077 18.7064 18.5239 18.5573 18.5365 18.4063C18.5506 18.1721 18.5397 17.9329 18.5247 17.7006C18.5021 17.4252 18.458 17.1539 18.414 16.8827C18.3767 16.6529 18.3394 16.4232 18.3152 16.1912C18.2659 15.6916 18.2594 15.1913 18.2861 14.6928C18.2856 14.6984 18.2851 14.7044 18.2847 14.7107C18.3063 14.3517 18.2953 13.9941 18.2842 13.6368C18.2693 13.1512 18.2543 12.666 18.3211 12.1785C18.3885 11.6583 18.5028 11.1373 18.7691 10.6761C19.0093 10.26 19.3252 9.90626 19.642 9.55141C19.7137 9.47113 19.7854 9.3908 19.8563 9.30969C19.8352 9.33011 19.8148 9.3533 19.7944 9.37649C19.774 9.39969 19.7536 9.42288 19.7325 9.44331C20.2214 8.88697 20.7034 8.32654 21.1644 7.75406C21.4398 7.41224 21.7351 7.09096 22.0306 6.76942C22.1585 6.63033 22.2864 6.49116 22.4127 6.35028C22.3916 6.37071 22.3713 6.39391 22.3509 6.41711C22.3305 6.44032 22.3102 6.46352 22.2891 6.48395C22.4792 6.2676 22.6594 6.03615 22.8326 5.80071C22.9282 5.65362 23.0146 5.50126 23.101 5.3489C23.1659 5.23452 23.2308 5.12014 23.2995 5.008ZM10.0399 54.4067L10.0415 54.4076L10.0234 54.4013L10.0399 54.4067ZM21.8416 33.2835C21.8429 33.3008 21.8442 33.3177 21.8452 33.3337L21.8416 33.2835ZM41.9545 6.36634L41.9676 6.37035L41.9847 6.37541C41.9739 6.3732 41.9639 6.3697 41.9545 6.36634ZM24.4773 59.6856L24.4693 59.6952C24.4615 59.7046 24.4537 59.7141 24.4442 59.7226C24.4546 59.7099 24.4658 59.6977 24.4773 59.6856Z" fill="#16BAC5"/>
</svg>
