<svg width="64" height="103" viewBox="0 0 64 103" fill="none" xmlns="http://www.w3.org/2000/svg">
<path fill-rule="evenodd" clip-rule="evenodd" d="M23.0197 97.721L23.0228 97.7241C23.2586 97.9558 23.4936 98.1865 23.7122 98.4314L23.7772 98.5063C24.0448 98.8138 24.3378 99.1509 24.4835 99.5108L24.5098 99.5757C24.6996 100.125 24.6945 100.698 24.4032 101.205C24.1433 101.655 23.6822 101.982 23.1887 102.096C22.624 102.223 22.0744 102.061 21.5243 101.898L21.4125 101.865C21.1451 101.789 20.8814 101.714 20.6172 101.642C20.3873 101.58 20.157 101.521 19.9234 101.465C19.1799 101.325 18.4384 101.262 17.6858 101.198L17.6836 101.198L17.6122 101.192C16.7225 101.121 15.8389 101.028 14.9565 100.935C14.5567 100.892 14.1572 100.85 13.7575 100.81C13.2969 100.792 12.8382 100.805 12.361 100.825C12.3774 100.826 12.3935 100.826 12.4096 100.825C12.4311 100.825 12.4524 100.824 12.4737 100.823L12.5017 100.822C12.5294 100.821 12.5573 100.82 12.5857 100.821C12.0715 100.856 11.5332 100.912 11.0188 100.894C10.5359 100.874 10.0733 100.824 9.59767 100.768C9.46344 100.752 9.32954 100.736 9.19574 100.719L9.02383 100.697C8.88681 100.68 8.74977 100.663 8.61254 100.646L8.48358 100.63C8.27805 100.606 8.07188 100.583 7.86429 100.563C7.04506 100.485 6.15511 100.392 5.4182 100.011C5.26834 100.147 5.08872 100.263 4.89404 100.342C3.99494 100.706 2.94948 100.255 2.58929 99.3651L2.46547 99.0592C2.0404 98.0091 2.62868 97.0873 3.18324 96.2184C3.21612 96.1669 3.24888 96.1155 3.2813 96.0644C3.37866 95.9099 3.47649 95.7557 3.57438 95.6014L3.60394 95.5549C4.19261 94.6275 4.78207 93.6988 5.27772 92.72C5.27631 92.7212 5.27472 92.7222 5.27308 92.7228C5.27803 92.7112 5.28295 92.6996 5.2906 92.6946L5.30442 92.667C5.43729 92.3892 5.57395 92.1205 5.71055 91.8519L5.71514 91.8427C5.96844 91.2833 6.21202 90.7197 6.4556 90.1561C6.87351 89.1891 7.29134 88.2223 7.75839 87.2762L7.80452 87.1833L7.80668 87.1789C7.81579 87.1599 7.825 87.1408 7.83462 87.1217L7.85776 87.0742C8.08995 86.603 8.32394 86.1283 8.59029 85.6732C8.79864 85.3083 9.04404 84.9285 9.40886 84.6837C9.76438 84.4427 10.1312 84.2294 10.5618 84.1739C11.2095 84.095 11.7827 84.3917 12.2025 84.869C12.2741 84.9515 12.3394 85.0393 12.4019 85.1296C12.4525 85.2025 12.5012 85.2771 12.5501 85.3519C12.6458 85.4983 12.7419 85.6454 12.8525 85.7819C13.2557 86.2983 13.6794 86.7984 14.103 87.2985L14.1085 87.3054C14.5302 87.8032 14.952 88.301 15.3533 88.8152C15.6412 89.179 15.9254 89.5443 16.2094 89.9092L16.2674 89.9837C16.3613 90.1043 16.4551 90.225 16.549 90.3454C17.2382 89.7108 17.9011 89.0513 18.5305 88.3489C18.5231 88.3573 18.5143 88.369 18.5056 88.3806L18.5122 88.3732L18.5217 88.3624C18.5298 88.3529 18.5378 88.3431 18.5454 88.3322C18.5701 88.3142 18.5876 88.2931 18.6071 88.2697C18.6139 88.2616 18.6209 88.2532 18.6285 88.2445L18.6215 88.2529L18.611 88.2664L18.6036 88.2762C18.5966 88.2856 18.5895 88.295 18.5831 88.3027C19.086 87.7118 19.563 87.1098 20.0066 86.4785L20.058 86.3976L20.0604 86.3941C20.1266 86.2899 20.1916 86.1879 20.2549 86.0843C20.3054 86.0019 20.3548 85.9186 20.4031 85.8324C20.0392 84.9333 20.4898 83.8879 21.3797 83.5277C21.9451 83.2988 22.4797 83.2335 23.0822 83.4427C23.5973 83.6225 23.9222 84.052 24.1173 84.534L24.1435 84.5989C24.3444 85.1217 24.2668 85.6494 24.1315 86.1681C23.9834 86.735 23.6719 87.325 23.3546 87.8203C22.9653 88.4309 22.5685 89.0232 22.1251 89.5802C21.1445 90.81 20.0625 91.961 18.8941 93.0133C18.96 93.0766 19.0262 93.1397 19.0928 93.2026C19.5401 93.6148 19.9652 94.0253 20.3737 94.4749C20.8205 94.96 21.2092 95.4894 21.5986 96.0197C21.8967 96.4258 22.1952 96.8323 22.5206 97.22C22.6837 97.391 22.8519 97.5562 23.0197 97.721ZM16.0717 95.2449C16.1156 95.2871 16.1601 95.3289 16.205 95.3706C16.2322 95.3959 16.2596 95.4211 16.2871 95.4462C16.3374 95.4922 16.388 95.538 16.4387 95.5839C16.5749 95.7073 16.7114 95.8308 16.8423 95.9583C17.2134 96.3152 17.5751 96.6758 17.9258 97.0625C18.1012 97.2827 18.2674 97.5067 18.4336 97.7308C17.908 97.6846 17.3766 97.6515 16.8509 97.6054C16.4177 97.5599 15.9848 97.5089 15.552 97.4578C15.1182 97.4066 14.6843 97.3554 14.25 97.3097C13.356 97.217 12.484 97.281 11.5915 97.3466L11.5371 97.3506C11.2271 97.3574 10.9318 97.3476 10.6234 97.3321C10.0011 97.2604 9.37662 97.1571 8.75801 97.0947C8.2193 97.043 7.68058 96.9914 7.14161 96.8859C7.11718 96.8794 7.09603 96.8743 7.07489 96.8693C7.05425 96.8643 7.03353 96.8593 7.00964 96.853C6.99285 96.8382 6.97987 96.8327 6.95382 96.8217C7.15309 96.5144 7.3486 96.1979 7.53862 95.8945C8.0089 95.1108 8.42343 94.2957 8.83415 93.4714C9.18306 92.7727 9.48384 92.0518 9.78424 91.3315C10.0943 90.5882 10.404 89.8457 10.766 89.1293C10.7895 89.1026 10.8068 89.0754 10.8211 89.048C10.8293 89.0324 10.8365 89.0167 10.8433 89.001L10.8546 88.9748C10.9861 89.137 11.1182 89.2924 11.2496 89.447C11.3024 89.5092 11.3551 89.5713 11.4077 89.6336C11.434 89.6648 11.4603 89.696 11.4865 89.7274L11.5637 89.8205C12.228 90.6088 12.8831 91.4009 13.5086 92.2265C13.5906 92.3331 13.672 92.44 13.7534 92.5468L13.6202 92.6424L13.4717 92.7486C13.3473 92.83 13.223 92.9118 13.0988 92.9937L12.8676 93.1463C12.7341 93.2346 12.6005 93.3228 12.4668 93.4107L12.2948 93.5236C12.0821 93.6629 11.869 93.8011 11.6549 93.937C10.8419 94.4603 10.5007 95.4831 10.9964 96.3612C11.4528 97.169 12.6038 97.5338 13.4169 97.0105C14.3144 96.4385 15.1989 95.855 16.0717 95.2449Z" fill="#E9D2F4"/>
<path d="M7.55027 26.5756C6.79763 25.9957 5.65245 26.1248 5.07074 26.8997C3.82776 28.5464 2.58478 30.1931 1.67511 32.0501C0.973526 33.4884 0.563925 35.0351 0.518521 36.6286C0.493768 37.3938 0.637959 38.123 0.876765 38.8462C1.07228 39.4359 1.50926 40.0357 2.10629 40.2579C2.79069 40.5096 3.50886 40.3915 4.04714 39.8823C4.59466 39.3694 4.78802 38.5143 4.50661 37.8191C4.41281 37.5874 4.27262 37.3745 4.10114 37.2173C4.08765 37.1041 4.0687 37.0039 4.06828 36.8962C4.05809 36.6846 4.07025 36.4747 4.08241 36.2648C4.11833 35.9805 4.16182 35.7148 4.21457 35.4453C4.28388 35.1368 4.37542 34.83 4.47075 34.5325C4.64528 34.0843 4.84592 33.647 5.05031 33.2191C5.35068 32.6552 5.69007 32.1079 6.04628 31.5752L6.33851 31.1718L6.34311 31.1656C6.8516 30.4635 7.35754 29.7647 7.88181 29.0738C8.26782 28.5615 8.33933 27.8853 8.11043 27.3199C7.98663 27.014 7.79987 26.7659 7.55027 26.5756Z" fill="#E9D2F4"/>
<path d="M18.5579 53.9559L18.5318 53.9449C18.5237 53.9394 18.5151 53.9348 18.5064 53.9307C18.4991 53.9272 18.4917 53.9241 18.4843 53.9209C18.4681 53.9141 18.4519 53.9071 18.437 53.897C17.9036 53.6397 17.3549 53.4278 16.807 53.2162L16.8051 53.2154C16.2796 53.0125 15.7548 52.8099 15.2449 52.5676C14.7146 52.2968 14.2083 52.0054 13.7185 51.675C13.1516 51.2824 12.6144 50.8679 12.0928 50.4193C12.1207 50.4454 12.1475 50.472 12.1742 50.4985C11.1419 49.5926 10.179 48.6077 9.21714 47.6239C8.77597 47.1727 8.33503 46.7217 7.88767 46.2786C7.20524 45.6054 6.06687 45.5916 5.38446 46.2777C4.71133 46.9602 4.69747 48.0986 5.38363 48.7809C5.59201 48.9876 5.80003 49.1951 6.00792 49.403L6.70161 50.0982C7.44947 50.8486 8.19885 51.6004 8.95999 52.339C10.2428 53.589 11.7069 54.7009 13.2999 55.5448C14.0834 55.9613 14.9001 56.2996 15.7369 56.6081C15.9378 56.681 16.1375 56.7513 16.3343 56.8262C16.5094 56.8928 16.682 56.963 16.851 57.0418C16.8873 57.0649 16.9249 57.0846 16.9626 57.1044L16.9869 57.1173L17.011 57.1303C17.0324 57.1419 17.0536 57.154 17.0744 57.1672C17.9488 57.5684 19.0314 57.0979 19.3917 56.2292C19.5886 55.7827 19.568 55.3055 19.4029 54.8976C19.2286 54.4935 18.932 54.1605 18.5579 53.9559Z" fill="#E9D2F4"/>
<path d="M12.0928 50.4193C12.0644 50.3927 12.0348 50.3665 12.0028 50.3414L12.0573 50.3886L12.0928 50.4193Z" fill="#E9D2F4"/>
<path d="M37.9079 52.0152C38.433 51.8157 38.9613 51.615 39.4998 51.4556C40.3768 51.1437 41.3869 51.5871 41.7341 52.4715C42.0981 53.3706 41.6475 54.4161 40.7576 54.7763C40.6697 54.8119 40.574 54.8407 40.4799 54.8691C40.4352 54.8825 40.3908 54.8958 40.3478 54.9098C39.8508 55.084 39.3538 55.2675 38.8562 55.4512C38.7231 55.5005 38.5898 55.5497 38.4565 55.5987C38.2543 55.6731 38.0519 55.7472 37.8493 55.8203C37.4899 55.95 37.1298 56.0766 36.7691 56.1966L36.7877 56.1891C34.7648 56.8609 32.7289 57.5009 30.6973 58.1395L30.2151 58.2911C29.7239 58.4456 29.233 58.6001 28.7427 58.7551C27.8173 59.0542 26.8173 58.3693 26.5871 57.4808C26.3416 56.5014 26.9545 55.6167 27.8706 55.3214C28.3433 55.1711 28.817 55.0235 29.2911 54.8769C29.5148 54.8077 29.7385 54.7387 29.9623 54.6697C31.0098 54.3467 32.0574 54.0237 33.0968 53.6806L33.0505 53.6994C33.0564 53.6982 33.0623 53.6969 33.0683 53.6955L33.0809 53.6923L33.0879 53.6904L33.1 53.6868C33.1161 53.6818 33.1324 53.676 33.1483 53.6701C33.1671 53.663 33.1854 53.6555 33.2025 53.6486L33.2581 53.6261L35.4835 52.8872C35.7073 52.8075 35.9305 52.7293 36.1534 52.6513C36.5876 52.4993 37.0207 52.3477 37.4545 52.1864C37.6055 52.1301 37.7566 52.0727 37.9079 52.0152Z" fill="#E9D2F4"/>
<path d="M17.6046 101.193C17.6071 101.193 17.6101 101.193 17.6122 101.192L17.5801 101.19L17.5898 101.191L17.5975 101.192C17.6 101.193 17.6024 101.193 17.6046 101.193Z" fill="#E9D2F4"/>
<path d="M57.3242 35.9768C56.4555 35.6163 55.5138 36.0084 55.0658 36.7939C55.0769 36.7678 55.0916 36.751 55.0934 36.7287C55.0303 36.8375 54.9605 36.9457 54.8892 37.0532C54.8312 37.1406 54.7722 37.2274 54.7151 37.3134C54.6072 37.4575 54.5019 37.6028 54.397 37.7476C54.2792 37.9103 54.1617 38.0724 54.0413 38.2319C53.9827 38.3095 53.9233 38.3865 53.8628 38.4626C53.8134 38.5247 53.7633 38.5863 53.7123 38.6471C53.2762 39.1688 52.8346 39.7036 52.4022 40.2347C51.5112 41.2318 50.6166 42.2197 49.7013 43.1835C49.0357 43.8844 48.9975 44.9895 49.7005 45.6867C50.3606 46.3581 51.538 46.3885 52.2037 45.6876C53.3352 44.4851 54.4722 43.2697 55.5236 42.0027L55.525 42.0011C56.0604 41.3532 56.5958 40.7052 57.1014 40.037C57.5132 39.4819 57.9565 38.9249 58.2529 38.2979C58.4573 37.8699 58.4461 37.3891 58.2772 36.9719C58.1101 36.5325 57.7669 36.1643 57.3242 35.9768Z" fill="#E9D2F4"/>
<path d="M60.7642 18.5962C61.1283 18.643 61.4539 18.781 61.7611 18.9803C62.2731 19.3124 62.6523 19.8494 62.8849 20.4241C62.9374 20.5539 62.9938 20.6929 63.0277 20.8302C63.301 21.7984 63.3237 22.8141 63.2591 23.8003C63.1925 24.7551 63.0627 25.7138 62.8808 26.6505C62.7977 27.0906 62.7146 27.5307 62.63 27.9714C62.5922 28.1681 62.5542 28.3649 62.5158 28.5619C62.4803 28.7435 62.4445 28.9254 62.4082 29.1074C62.2171 30.0478 61.3991 30.7457 60.4013 30.5994C59.4965 30.4694 58.722 29.5422 58.9093 28.5925C59.2296 26.9849 59.546 25.3681 59.7119 23.7258C59.7344 23.3284 59.7422 22.9476 59.7294 22.5428C59.7217 22.4704 59.7176 22.4073 59.7137 22.3442C59.0944 22.1202 58.5815 21.5727 58.5415 20.8876C58.4972 20.0317 58.8163 19.0611 59.7064 18.7547C60.0568 18.6344 60.387 18.5439 60.7642 18.5962Z" fill="#E9D2F4"/>
<path d="M58.2438 7.13779L58.2529 7.15247C58.3895 7.37194 58.526 7.59126 58.6628 7.81054C58.809 8.04495 58.9555 8.27927 59.1026 8.51358C59.2787 8.79405 59.4557 9.07449 59.6342 9.35504C59.6772 9.43476 59.7203 9.51437 59.7689 9.58103C60.084 10.3597 59.711 11.3306 58.9867 11.7532C58.1086 12.249 57.0858 11.9078 56.5625 11.0947C56.2452 10.5965 55.9344 10.0935 55.6236 9.59019C55.2388 8.96717 54.8538 8.34391 54.4558 7.72922C54.1252 7.25892 53.7853 6.79237 53.4121 6.3501C53.1472 6.06895 52.8769 5.80076 52.5973 5.53637C52.2823 5.2647 51.9471 5.0228 51.6026 4.78468C51.5268 4.7354 51.4501 4.68664 51.373 4.638L51.2593 4.56647C50.5792 4.13905 49.8813 3.7005 49.5226 2.95115C49.1031 2.07456 49.6556 0.987796 50.4992 0.646341C51.1851 0.368688 51.8748 0.553449 52.3633 1.0138L52.4639 1.10251L52.4676 1.11174C52.5515 1.18565 52.6446 1.25587 52.734 1.31681L52.9382 1.45011C53.6041 1.88413 54.2687 2.31738 54.874 2.84552C55.9567 3.78816 56.8584 4.92277 57.6191 6.13593C57.8249 6.46497 58.0294 6.79364 58.2338 7.12188L58.2438 7.13779Z" fill="#E9D2F4"/>
<path d="M18.5802 53.9577C18.6062 53.9687 18.6192 53.9742 18.636 53.989C18.6192 53.9742 18.5932 53.9632 18.5802 53.9577Z" fill="#E9D2F4"/>
<path d="M18.4462 53.8932L18.5113 53.9208C18.4945 53.906 18.4685 53.895 18.4462 53.8932Z" fill="#E9D2F4"/>
<path d="M21.8068 19.0464C23.8898 18.9152 25.9655 19.2724 28.0134 19.641C28.6546 19.759 29.1726 20.1859 29.4107 20.7476C29.5232 21.0257 29.5617 21.3338 29.5184 21.6534C29.3867 22.5805 28.4668 23.3197 27.5116 23.1454C26.2553 22.9202 24.9973 22.7175 23.734 22.5816C23.2159 22.5539 22.6866 22.5524 22.1648 22.5694C21.71 22.5917 21.2571 22.6456 20.7987 22.7125C20.2699 22.8186 19.7431 22.9563 19.2275 23.1219C18.204 23.4715 17.2159 23.8822 16.2373 24.3431C16.1207 24.4002 16.005 24.4594 15.89 24.5205C15.8543 24.5395 15.8186 24.5586 15.7831 24.578C15.6856 24.6312 15.5887 24.6857 15.4924 24.7417C15.4739 24.7492 15.4684 24.7622 15.4498 24.7697C14.7802 25.4075 13.6567 25.3769 13.0002 24.7148C12.3196 24.0194 12.341 22.8995 13.0104 22.2078C13.4546 21.7422 14.0907 21.4403 14.6713 21.1649L14.77 21.118C15.5576 20.7452 16.3676 20.3742 17.1984 20.0811L17.4095 20.0076C18.0876 19.7713 18.772 19.5328 19.4795 19.3735C20.2513 19.2013 21.0178 19.0961 21.8068 19.0464Z" fill="#E9D2F4"/>
<path d="M36.4999 32.7441C35.9526 31.9516 34.7581 31.8525 34.0139 32.4127C33.2254 33.0232 33.1351 34.1062 33.6917 34.8949C33.7402 34.9616 33.7721 35.0135 33.8168 35.0709C33.9402 35.2691 34.0506 35.4617 34.1554 35.6674C34.4477 36.2827 34.6898 36.9075 34.9133 37.5398C35.4152 39.08 35.8519 40.6404 36.2884 42.1994L36.2891 42.2017L36.2916 42.2103L36.2965 42.2273C36.4381 42.7333 36.5796 43.2391 36.7234 43.7439C36.9817 44.6751 37.9219 45.2655 38.879 45.0182C39.7899 44.7897 40.4246 43.7992 40.1571 42.8718C39.8103 41.6421 39.4598 40.4031 39.1038 39.1771L38.9939 38.7966C38.6501 37.6048 38.3005 36.3931 37.836 35.2455C37.4666 34.3594 37.0435 33.5274 36.4999 32.7441Z" fill="#E9D2F4"/>
<path d="M33.4918 63.4782C33.7503 63.557 33.9848 63.7102 34.1807 63.9006C34.3596 64.0764 34.4738 64.2783 34.5601 64.4914C34.6464 64.7047 34.6918 64.9236 34.7355 65.1648C34.7828 65.4535 34.7296 65.7648 34.6812 66.0472L34.6689 66.1196C34.6254 66.3853 34.5597 66.6493 34.4716 66.9115C34.292 67.4805 34.1085 68.0402 33.9066 68.6073L32.3859 72.686C31.5869 74.8434 30.7583 76.9804 29.9296 79.1174C29.5805 80.014 28.481 80.4159 27.6123 80.0555C26.7008 79.6693 26.3251 78.6346 26.6742 77.7381L26.676 77.7336L26.6768 77.7317C28.0477 74.1929 29.4186 70.6539 30.6936 67.0818C30.8699 66.5601 31.05 66.0265 31.1882 65.4895C31.1162 65.1519 31.1445 64.7952 31.2879 64.4566C31.6465 63.6103 32.6271 63.181 33.4918 63.4782Z" fill="#E9D2F4"/>
</svg>
