<svg width="72" height="85" viewBox="0 0 72 85" fill="none" xmlns="http://www.w3.org/2000/svg">
<path d="M38.651 75.2475C38.6501 75.2415 38.649 75.2346 38.6484 75.2265C38.6506 75.2214 38.6499 75.2151 38.6479 75.2082C38.6464 75.2027 38.644 75.1969 38.6416 75.1911C38.6484 75.2265 38.6499 75.2488 38.6514 75.2711C38.6538 75.2653 38.6526 75.2579 38.651 75.2475Z" fill="#16BAC5"/>
<path fill-rule="evenodd" clip-rule="evenodd" d="M37.3979 51.0175C37.1287 51.219 36.9125 51.4751 36.7807 51.7885C36.6062 52.2032 36.6315 52.6587 36.6516 53.1011C36.6737 53.4394 36.6883 53.7806 36.7028 54.1186C36.7074 54.2266 36.7121 54.3342 36.717 54.4413C36.7614 55.393 36.815 56.3486 36.8687 57.3042C36.9702 59.1261 37.144 60.9567 37.344 62.7767C37.4541 63.74 37.5621 64.7023 37.67 65.6648C37.7333 66.2298 37.7967 66.7948 37.8605 67.36C37.7926 67.2608 37.7245 67.1617 37.6562 67.0631C37.0371 66.1624 36.3916 65.2726 35.7476 64.4051C34.2568 62.3784 32.8092 60.3265 31.4047 58.2494C29.2698 54.9429 27.2305 51.5898 25.2551 48.1876C23.4022 45.0104 21.5739 41.8003 19.8896 38.5315C19.05 36.9125 18.2276 35.2865 17.4036 33.6571L17.3938 33.6379C17.2041 33.2626 17.0142 32.8873 16.824 32.5118L16.8109 32.4829C16.1396 31.0043 15.474 29.5381 14.8677 28.0328C14.5886 27.3295 14.2925 26.6408 14.0487 25.9308C13.7273 24.9928 13.4151 24.0586 13.1029 23.1245C13.11 23.1419 13.1169 23.1599 13.1235 23.1784C13.1288 23.1933 13.134 23.2083 13.139 23.2237C13.1515 23.2613 13.1634 23.3003 13.1753 23.3393C13.0301 22.7825 12.882 22.2245 12.7326 21.666C12.6538 21.3714 12.5747 21.0767 12.4954 20.7819L12.3846 20.3705C12.3982 20.4412 12.421 20.5159 12.4216 20.5921C12.1796 19.362 11.9245 18.1373 11.7403 16.8991C11.7167 16.7367 11.6914 16.5746 11.6661 16.4123L11.6655 16.4089L11.6627 16.3914C11.5935 15.948 11.5241 15.504 11.485 15.0558C11.4212 14.3563 11.3522 13.6438 11.2923 12.9351C11.2526 12.0599 11.2476 11.1779 11.2951 10.297C11.6847 10.2797 12.071 10.2903 12.4643 10.3037C12.9334 10.3491 13.3986 10.4038 13.8614 10.49C14.8883 10.7051 15.8842 10.9939 16.8831 11.3273L16.8861 11.3286C19.2544 12.1947 21.6229 13.0609 23.8866 14.1758C25 14.7526 26.0809 15.381 27.1309 16.083C28.5199 17.0362 29.8255 18.0845 31.091 19.2028L32.3017 20.3609C32.707 20.7491 33.1124 21.1372 33.52 21.5264C33.775 21.7682 34.0109 22.0355 34.2465 22.3024L34.3349 22.4024C34.3831 22.4568 34.4314 22.5112 34.4799 22.5651C34.5469 22.6396 34.6143 22.7133 34.6827 22.7857C34.9281 23.0557 35.1749 23.3224 35.4234 23.5905L35.7195 23.9102L35.9418 24.1508L35.9634 24.1774L36.7274 25.1098C37.075 25.5334 37.4232 25.9556 37.7727 26.3747C38.0994 26.7721 38.4106 27.1785 38.7185 27.5874L38.9776 27.9327L39.0039 27.9679C39.1143 28.1153 39.2247 28.2628 39.3358 28.4101C40.4791 29.9216 41.553 31.4692 42.61 33.0313C43.6093 34.6016 44.5824 36.1826 45.5162 37.7797C46.5325 39.5416 47.5095 41.3195 48.4788 43.116C49.9206 45.756 51.2643 48.4547 52.605 51.1477C52.9739 51.8887 53.3426 52.6291 53.713 53.3678C54.0115 53.9654 54.311 54.5629 54.611 55.1603C54.8776 55.6911 55.1446 56.2219 55.4117 56.7527C56.564 59.0432 57.7173 61.3356 58.8411 63.6399L58.8572 63.6792C59.3527 64.7448 59.826 65.8117 60.23 66.9147C60.3055 67.1647 60.3781 67.4135 60.4476 67.661C60.4991 67.8441 60.5489 68.0266 60.5971 68.2083C60.8423 69.1468 61.8297 69.7139 62.759 69.4648C63.6975 69.2196 64.2647 68.2323 64.0156 67.303C63.7528 66.3029 63.4416 65.3149 63.0426 64.3551C62.6809 63.4869 62.2892 62.6386 61.8713 61.801C61.3033 60.6419 60.7262 59.4934 60.1483 58.3428C59.9973 58.0422 59.8462 57.7415 59.6952 57.4404C59.5451 57.1411 59.3951 56.8415 59.2453 56.5413C58.5621 55.1843 57.8813 53.8252 57.2004 52.4658L57.1908 52.4462C56.0725 50.2136 54.9539 47.9804 53.8236 45.755C52.0792 42.3198 50.2523 38.9258 48.3167 35.5838C47.9076 34.8801 47.4946 34.1857 47.0646 33.5058C46.8953 33.2359 46.7289 32.9641 46.5625 32.6924C46.1929 32.0888 45.8238 31.4859 45.4242 30.9063C45.216 30.6058 45.0087 30.3056 44.8017 30.0056L44.4264 29.4614L44.4043 29.4295C44.0798 28.9587 43.7554 28.488 43.4287 28.0164C43.0939 27.5306 42.7345 27.0581 42.3771 26.5883C42.195 26.349 42.0135 26.1104 41.836 25.871C41.3352 25.2046 40.8359 24.5606 40.3142 23.918C40.2049 23.7858 40.0964 23.6524 39.9883 23.5182C39.8943 23.4015 39.8006 23.2845 39.7067 23.1674C39.2841 22.6395 38.8606 22.1105 38.4066 21.6184C37.6394 20.7858 36.8631 19.9493 36.0959 19.1167C35.912 18.9092 35.698 18.7214 35.484 18.5338L33.9498 17.0747C30.8706 14.1303 27.2603 11.7003 23.3245 10.0446C23.2644 10.0058 23.2007 9.97111 23.1349 9.9388C23.0971 9.92026 23.0587 9.90251 23.0199 9.88525C22.9775 9.8665 22.9348 9.84824 22.8918 9.83005L22.8476 9.81144L22.4372 9.6465C20.2803 8.77871 18.1098 7.90549 15.8622 7.30685C14.6585 6.98626 13.4339 6.78074 12.2081 6.74554C12.2525 6.66954 12.2975 6.59416 12.3418 6.52024C12.4067 6.43154 12.473 6.3462 12.5417 6.26188C12.5731 6.22341 12.605 6.18505 12.6375 6.14668C12.6736 6.10413 12.7105 6.0615 12.7481 6.01855C12.8825 5.87973 13.0168 5.7409 13.1696 5.60996C13.2131 5.57702 13.2561 5.54384 13.299 5.51066C13.4288 5.41032 13.5586 5.3101 13.7039 5.21643L14.2612 4.89756L14.2663 4.89534C14.5435 4.77476 14.8207 4.65417 15.0993 4.55579C15.4243 4.45374 15.7415 4.37023 16.0771 4.29451C16.4497 4.23418 16.8183 4.18305 17.2015 4.14904C17.8 4.11876 18.3962 4.12006 18.9938 4.14367C20.0436 4.22718 21.0884 4.3739 22.1231 4.57054C23.7128 4.89204 25.2914 5.31748 26.8312 5.83504C27.9736 6.23963 29.106 6.69426 30.198 7.21882C31.3905 7.83979 32.5335 8.52683 33.6402 9.27446C34.9924 10.2121 36.3069 11.1881 37.5965 12.1971L37.9256 12.4521C38.979 13.2678 40.036 14.0863 41.0278 14.9751C41.0217 14.9688 41.0155 14.9627 41.0091 14.9565C41.5032 15.409 42.0029 15.8586 42.5006 16.3064L42.5285 16.3316L42.9618 16.7217C43.6188 17.3777 44.2797 18.0245 44.9314 18.6676C45.347 19.081 45.7326 19.5227 46.1179 19.9641C46.3281 20.2049 46.5382 20.4456 46.753 20.6815C47.6162 21.7498 48.4704 22.8142 49.2774 23.9132C49.9233 24.7973 50.5495 25.6984 51.1769 26.6012C51.3209 26.8083 51.465 27.0157 51.6094 27.2229L51.763 27.4433C52.2711 28.2212 52.7739 28.986 53.2859 29.7547C53.2765 29.7405 53.2674 29.726 53.2583 29.711C55.5859 33.3123 57.4763 37.1494 59.3542 40.9849C60.8797 44.192 62.3538 47.4202 63.7731 50.6782C64.46 52.269 65.1692 53.8583 65.8992 55.4239C66.2589 56.1935 66.6186 56.9633 66.9651 57.7384C67.3025 58.5095 67.5836 59.3113 67.8555 60.1091C68.1663 61.0209 69.3049 61.4347 70.1599 61.0785C71.0897 60.6993 71.4401 59.6859 71.1293 58.7741C70.8293 57.8884 70.5122 57.0174 70.1336 56.1638C69.7656 55.3363 69.3754 54.5104 68.9943 53.6884C68.3459 52.2932 67.7311 50.8843 67.1134 49.4687L67.1114 49.4643L67.07 49.3694C66.9318 49.0529 66.7935 48.7359 66.6546 48.4187C65.0663 44.7671 63.3824 41.1622 61.6423 37.5878C60.653 35.5552 59.643 33.5463 58.5243 31.5894C57.3445 29.5199 56.0613 27.5155 54.7519 25.5219L54.7611 25.5258C53.4357 23.4928 51.9978 21.521 50.4803 19.635C50.3724 19.5013 50.2655 19.3651 50.1582 19.2284L50.1518 19.2202C49.8927 18.89 49.6315 18.5573 49.3498 18.248C49.1886 18.0689 49.027 17.8907 48.8653 17.7129L48.5892 17.4096C48.3384 17.1343 48.0875 16.859 47.8377 16.5814C47.5189 16.2302 47.1832 15.8936 46.8381 15.5533C46.7598 15.4756 46.6817 15.3975 46.6036 15.3193L46.4251 15.1398C46.1529 14.8662 45.8803 14.592 45.6015 14.3263C45.4974 14.2271 45.3924 14.1291 45.2864 14.0327C45.3393 14.0874 45.396 14.133 45.4581 14.1917C45.2672 14.0193 45.0765 13.8464 44.8856 13.6734L44.8453 13.637L44.8418 13.6339L44.8399 13.6323C43.5845 12.4942 42.3258 11.3531 40.9913 10.3164L40.5729 9.99264C38.9293 8.7205 37.2905 7.45209 35.582 6.28337C34.4937 5.54347 33.3915 4.86273 32.2266 4.25339C31.577 3.91497 30.9157 3.60432 30.2428 3.32126C29.8509 3.18832 29.4662 3.04714 29.0848 2.90721C28.8195 2.80977 28.5557 2.71296 28.2921 2.61997C26.8667 2.11781 25.4093 1.74308 23.9519 1.36837L23.9479 1.36749C22.9719 1.10879 21.9623 0.955322 20.9713 0.809645C19.6688 0.630547 18.3592 0.546021 17.0465 0.623158C15.8771 0.695347 14.7455 0.935249 13.6411 1.3169C12.4882 1.71059 11.466 2.38715 10.5639 3.19031C9.33179 4.28487 8.60091 5.7553 8.18669 7.32094C6.05168 8.04283 4.14252 9.47448 2.95819 11.3929C2.35411 12.3647 2.00331 13.508 1.72576 14.6064C1.40595 15.8822 1.20458 17.1862 1.05704 18.4911C0.770232 21.1585 0.839551 23.8564 1.17898 26.5054C1.4279 28.3893 1.83311 30.263 2.37846 32.0871C2.47897 32.4262 2.57441 32.7688 2.66993 33.112L2.67041 33.1142C2.86455 33.8118 3.05928 34.5116 3.29865 35.1864C3.65883 36.1944 4.02735 37.2061 4.39173 38.2066L4.44777 38.3605C4.66519 38.9666 4.90874 39.5573 5.15449 40.1533L5.2593 40.4077C5.2947 40.4938 5.33006 40.5801 5.36533 40.6666C6.82848 44.2547 8.40027 47.7908 10.1724 51.2377C11.9537 54.6884 13.8043 58.1033 15.914 61.3666C16.1389 61.7121 16.3606 62.062 16.5826 62.4125L16.5853 62.4173C16.9674 63.0203 17.3507 63.6253 17.7544 64.2129C17.9489 64.4866 18.1418 64.7616 18.334 65.0375C18.5237 65.31 18.7127 65.5832 18.9019 65.8567L19.3124 66.4493L19.4233 66.6089C19.4869 66.7003 19.5506 66.7917 19.6145 66.8831C20.5764 68.2716 21.6268 69.6044 22.6692 70.927L22.6723 70.9309L22.9212 71.2467C23.2393 71.6503 23.5579 72.0526 23.8768 72.4543C24.1611 72.8125 24.4457 73.1702 24.7303 73.5279L24.7422 73.5428C25.3409 74.2954 25.9396 75.0481 26.5364 75.8052C26.9465 76.3245 27.3532 76.852 27.7598 77.3796L27.9782 77.6628C28.0846 77.8008 28.1911 77.9386 28.2977 78.0762C28.0398 77.9101 27.7842 77.7406 27.5304 77.5686C26.4385 76.808 25.354 76.03 24.2738 75.255L24.2625 75.2468C23.9851 75.0478 23.7079 74.849 23.4311 74.6508C22.7391 74.1515 22.028 73.6717 21.3176 73.1922C21.1411 73.073 20.9646 72.954 20.7885 72.8346C20.6758 72.7583 20.5634 72.6819 20.4511 72.6052L20.4603 72.6091C19.7098 72.0981 18.9591 71.587 18.2125 71.0668C16.7604 70.0697 15.3863 68.9518 14.0201 67.8403L13.6284 67.5219C13.1713 67.1126 12.7143 66.7034 12.2519 66.2811L12.0656 66.105C11.8369 65.6942 11.4526 65.3698 10.9685 65.2312C10.658 65.144 10.3548 65.1684 10.0454 65.2335C9.01078 65.4492 8.48203 66.6805 8.86118 67.6103C9.10143 68.1995 9.55999 68.6311 10.0263 69.0442C10.2196 69.2137 10.4117 69.386 10.6025 69.5573L10.7909 69.7266C10.8887 69.8144 10.9861 69.9016 11.083 69.9878C11.5 70.3628 11.9374 70.7169 12.3772 71.073C12.5352 71.2009 12.6934 71.329 12.8511 71.4585C13.9496 72.3545 15.0952 73.2162 16.264 74.0225L16.2363 74.0109C16.996 74.5257 17.752 75.0499 18.521 75.5686C18.5118 75.5648 18.5025 75.5609 18.5064 75.5517C20.1303 76.6687 21.7319 77.7873 23.3349 78.9281C24.9855 80.1107 26.64 81.284 28.4244 82.2517C29.5301 82.847 30.7085 83.321 31.9266 83.649C32.595 83.8255 33.2774 83.9493 33.9587 84.0728L34.2435 84.1246L34.4864 84.1683L34.4878 84.1684C35.124 84.2831 35.7646 84.3987 36.4108 84.4397C36.9691 84.4793 37.5207 84.4835 38.0834 84.3839C38.646 84.2842 39.1605 84.0668 39.6485 83.7838C40.534 83.2776 41.111 82.3703 41.5502 81.4811C41.808 80.9712 41.9354 80.3847 42.0342 79.8404C42.162 79.1239 42.236 78.4064 42.2732 77.6735C42.3519 75.8716 42.16 74.06 41.9698 72.2647L41.9695 72.2626L41.9298 71.8877C41.9038 71.6356 41.8781 71.3829 41.8523 71.1298C41.7806 70.4263 41.7087 69.72 41.6296 69.0167L41.5373 68.2169C41.1101 64.5166 40.6829 60.8178 40.4179 57.094C40.3765 56.393 40.335 55.6921 40.3028 54.9951C40.2911 54.7447 40.2749 54.4925 40.2586 54.2398C40.2377 53.9129 40.2166 53.5852 40.2052 53.2598C40.2 53.114 40.1968 52.9686 40.1964 52.824C40.3073 52.3282 40.2144 51.801 39.899 51.3645C39.703 51.1084 39.4536 50.9276 39.1678 50.8074C38.5833 50.5724 37.9008 50.6215 37.3979 51.0175ZM36.6362 71.8089C37.1723 72.5795 37.7888 73.3973 38.5656 73.9599C38.5911 74.2519 38.6151 74.544 38.6375 74.8362C38.6461 74.9483 38.6545 75.0604 38.6625 75.1725C38.6628 75.1699 38.6633 75.1674 38.664 75.1647C38.6646 75.1625 38.6654 75.1604 38.6663 75.1581C38.6655 75.1687 38.6652 75.1782 38.6654 75.1872C38.6659 75.205 38.669 75.2207 38.6761 75.2382L38.6805 75.3051C38.7258 76.2029 38.7529 77.093 38.7129 77.9875C38.6737 78.4158 38.6161 78.8364 38.5493 79.2531C38.5294 79.34 38.5086 79.4249 38.4866 79.5089C38.4511 79.6451 38.4123 79.7789 38.3686 79.9148L38.2561 80.1821C38.2333 80.2242 38.2104 80.2663 38.1869 80.3069C38.1612 80.3516 38.1347 80.3946 38.1068 80.434C38.0574 80.4999 38.0079 80.5659 37.9716 80.6266C37.9337 80.6649 37.8958 80.7032 37.8619 80.7323C37.8569 80.7344 37.8532 80.7369 37.8501 80.7392C37.8451 80.7428 37.8415 80.7454 37.8358 80.743L37.7063 80.8187L37.5884 80.8668L37.4429 80.9032C37.4075 80.91 37.3852 80.9115 37.359 80.9222C37.286 80.9255 37.2125 80.9276 37.1388 80.9284C36.9777 80.9305 36.8155 80.9269 36.6552 80.9189C35.9114 80.8569 35.1795 80.7171 34.449 80.5777L34.2564 80.5409L34.1194 80.515C34.3432 79.708 33.9527 78.8222 33.1852 78.4394C33.1759 78.4355 33.1575 78.4278 33.1521 78.4147C33.1512 78.4124 33.1498 78.4102 33.1481 78.4081C33.1468 78.4065 33.1452 78.4048 33.1435 78.4032C33.1406 78.4006 33.1374 78.3979 33.1339 78.3951C33.1274 78.39 33.1202 78.3843 33.1138 78.3769C33.0275 78.2933 32.939 78.2047 32.8521 78.1151C32.7993 78.0606 32.747 78.0058 32.696 77.9516C32.0408 77.166 31.4236 76.3524 30.8072 75.5399C30.4534 75.0736 30.1 74.6077 29.7397 74.1476C29.2094 73.4742 28.676 72.8078 28.1427 72.1414C27.6094 71.475 27.0761 70.8086 26.5457 70.1352C25.4796 68.7754 24.4134 67.4156 23.3774 66.0359C22.7249 65.1725 22.1078 64.2842 21.4915 63.397L21.489 63.3931L21.4836 63.3857C21.1943 62.9689 20.9049 62.5523 20.6122 62.1387C19.9395 61.1072 19.2407 60.0863 18.602 59.0257C18.2341 58.4044 17.8531 57.7885 17.4814 57.1765C17.3698 56.9898 17.2548 56.8045 17.1396 56.619C17.0029 56.3987 16.8659 56.1779 16.7339 55.954C16.7049 55.9047 16.676 55.8552 16.6475 55.8056C16.6098 55.7398 16.5726 55.6736 16.536 55.6071C16.2474 55.0878 15.9572 54.5676 15.6663 54.0464C15.2911 53.374 14.9148 52.6998 14.5398 52.0226C14.0773 51.1811 13.6452 50.3196 13.2144 49.4607C13.1215 49.2754 13.0287 49.0903 12.9356 48.9056C12.8524 48.7404 12.769 48.5754 12.6851 48.4109C12.569 48.166 12.4524 47.9215 12.3354 47.677L12.0348 47.0497C11.7007 46.3526 11.3661 45.6546 11.0377 44.9513C10.6323 44.0909 10.2574 43.2103 9.88386 42.3325C9.7346 41.9817 9.58554 41.6313 9.43474 41.2829C8.39981 38.8947 7.49964 36.444 6.61803 34.0009C6.38299 33.2186 6.15189 32.427 5.92607 31.6485C5.55945 30.4311 5.25442 29.1962 4.99795 27.9492C4.74869 26.6075 4.57408 25.2431 4.47565 23.8782C4.40006 22.5879 4.41375 21.2917 4.47735 20.0058C4.56283 18.8484 4.70744 17.705 4.91517 16.5665C5.06141 15.8578 5.23543 15.1607 5.45007 14.4699C5.58285 14.1026 5.73408 13.7431 5.89989 13.4006C5.91448 13.3719 5.92946 13.3435 5.9449 13.3152C5.96169 13.2842 5.97899 13.2535 5.99656 13.2229L6.02193 13.1791L6.0493 13.1326C6.069 13.0993 6.08887 13.0661 6.10879 13.0329C6.18605 12.9278 6.26131 12.8274 6.33899 12.728C6.41445 12.6314 6.49216 12.5357 6.57626 12.4375C6.73138 12.275 6.89965 12.107 7.06939 11.9615C7.26529 11.8052 7.46654 11.6621 7.66779 11.519L7.70617 11.4953C7.71151 12.7094 7.81557 13.9166 7.92703 15.1322C8.09262 16.9142 8.43299 18.6626 8.77296 20.4089L8.87722 20.9455C9.02014 21.6578 9.21473 22.3531 9.4096 23.0493C9.48698 23.3258 9.56441 23.6024 9.63871 23.8804C9.81692 24.5285 10.0368 25.1673 10.2566 25.8057L10.2576 25.8085C10.3495 26.0753 10.4414 26.3421 10.5302 26.6095C11.0915 28.2668 11.7367 29.9052 12.4643 31.5023C12.5694 31.7319 12.6733 31.9629 12.7768 32.1945L12.8812 32.4282C13.1549 33.0416 13.4296 33.6567 13.7249 34.2567C13.8831 34.5737 14.0423 34.8911 14.2017 35.2088L14.2077 35.2205C14.5503 35.9039 14.8939 36.5894 15.2316 37.2772C16.076 38.9814 16.978 40.6473 17.8864 42.3246L17.9448 42.4326C19.7372 45.7795 21.6121 49.0852 23.5602 52.3457C24.612 54.1008 25.6807 55.8413 26.7624 57.5766C27.7976 59.2363 28.8927 60.8563 29.9879 62.4763L29.9926 62.4831C30.635 63.4344 31.3181 64.3629 32.0011 65.2912C32.3842 65.8119 32.7672 66.3324 33.1431 66.857C33.9962 68.0513 34.8405 69.2532 35.6838 70.4538C36.0013 70.9058 36.3186 71.3577 36.6362 71.8089Z" fill="#16BAC5"/>
</svg>
