<svg width="73" height="134" viewBox="0 0 73 134" fill="none" xmlns="http://www.w3.org/2000/svg">
<path fill-rule="evenodd" clip-rule="evenodd" d="M40.4229 25.4921C41.0044 24.9072 41.586 24.3223 42.1697 23.7396C43.0458 22.8675 44.5762 22.7853 45.4752 23.6519C46.3742 24.5185 46.3643 25.9424 45.5337 26.8407C45.3942 26.9946 45.2547 27.1473 45.1154 27.2997C44.6904 27.7647 44.2678 28.2271 43.8559 28.7097C42.0262 30.9954 40.3137 33.3689 38.603 35.7401C38.2876 36.1772 37.9722 36.6143 37.6562 37.0506C36.5667 38.5664 35.4405 40.0469 34.305 41.5185L34.3039 41.52C33.292 42.8267 32.2801 44.1334 31.3688 45.5193C30.9326 46.3022 30.5144 47.0848 30.1329 47.9028C30.1762 47.8029 30.2197 47.7211 30.2541 47.6303C29.4391 49.3754 28.6513 51.129 27.9453 52.9261C27.2394 54.7232 26.6059 56.5371 26.0087 58.3682C26.0251 58.2779 26.0595 58.1871 26.0847 58.0875C25.7449 59.2111 25.4051 60.3348 25.174 61.4924C25.0925 61.9625 25.0379 62.423 25.0013 62.8833C24.9879 63.1358 25.0014 63.3789 25.006 63.6311C25.0161 63.8037 25.0422 63.9813 25.0678 64.1561C25.0756 64.2092 25.0834 64.262 25.0906 64.3144C25.1395 64.5207 25.1971 64.7179 25.264 64.9239C25.3495 65.1657 25.4528 65.3891 25.5651 65.6213C25.7513 65.9423 25.9282 66.2544 26.132 66.557C26.5108 67.0637 26.8983 67.5612 27.3124 68.0312C27.7351 68.474 28.1662 68.8896 28.6242 69.2957C29.0174 69.6039 29.4013 69.9032 29.821 70.1839C30.1764 70.4026 30.5496 70.603 30.9316 70.7943L31.7482 71.1036C32.0104 71.1798 32.2723 71.238 32.5342 71.2962L32.5357 71.2965C32.861 71.3446 33.1951 71.3835 33.5289 71.4044C34.0065 71.4046 34.4929 71.3957 34.9879 71.3596C35.7557 71.2848 36.5203 71.1844 37.2853 71.084C37.8823 71.0057 38.4795 70.9273 39.0787 70.861C39.4588 70.8194 39.839 70.7825 40.2187 70.7457C41.3214 70.6387 42.4203 70.5322 43.5021 70.3112C43.8431 70.2329 44.1837 70.1365 44.5244 70.0401C45.0612 69.832 45.5797 69.6063 46.0887 69.3536C47.4296 68.6119 48.7072 67.7409 49.9753 66.8764L50.0433 66.83C50.4633 66.5339 50.8861 66.2406 51.309 65.9474C51.9432 65.5076 52.5774 65.0678 53.2016 64.6184C54.3666 63.7771 55.5044 62.9272 56.6324 62.0324C57.3704 61.4575 58.0926 60.8383 58.8111 60.2223C59.0614 60.0077 59.3112 59.7935 59.561 59.5817C59.8925 59.3013 60.2251 59.022 60.5572 58.743C61.1854 58.2155 61.8121 57.6892 62.4272 57.1592C63.5882 56.1016 64.7129 55.0267 65.7638 53.863C66.135 53.4535 66.498 53.0361 66.861 52.6187C67.0422 52.4104 67.2234 52.202 67.4056 51.9946C67.5025 51.8757 67.5815 51.7571 67.6695 51.6473L67.7076 51.5976C68.2458 50.8939 68.8961 50.0435 69.7991 49.8421C70.9118 49.5874 72.073 50.0166 72.544 51.1254C72.9205 52.0015 72.6956 53.0059 72.0229 53.667C71.5893 54.0985 71.1832 54.5565 70.7771 55.0145C70.5934 55.2571 70.4116 55.5003 70.2299 55.7431C69.7069 56.4424 69.1859 57.1389 68.6297 57.8113C67.4137 59.3114 66.1516 60.7493 64.8533 62.1879C63.9223 63.2246 62.9593 64.2337 61.996 65.243C60.7119 66.5887 59.4273 67.9349 58.2174 69.3473C56.8338 71.0397 55.4413 72.7413 54.0668 74.4426C52.7892 76.025 51.6397 77.7131 50.5355 79.4094C48.8831 82.1701 47.2578 84.9393 45.7512 87.7874C44.3405 90.4625 43.0117 93.1812 41.7373 95.9169C40.5199 98.8138 39.4565 101.753 38.5021 104.744C38.2651 105.577 38.0557 106.437 37.8913 107.305C37.6396 108.952 37.5638 110.618 37.4879 112.286C37.4813 112.431 37.4748 112.575 37.4681 112.72C37.4391 113.594 37.4101 114.469 37.3991 115.343C37.404 116.096 37.4435 116.83 37.4838 117.581L37.4859 117.621C37.6009 118.524 37.7427 119.423 37.8846 120.324C38.0156 121.155 38.1468 121.988 38.2573 122.825C38.3272 123.329 38.3887 123.834 38.4503 124.338C38.5073 124.806 38.5643 125.273 38.6278 125.74C39.8435 124.148 40.9513 122.487 42.0409 120.809C42.3173 120.366 42.5913 119.923 42.8652 119.48C43.3633 118.675 43.8606 117.872 44.3693 117.072C44.8687 116.297 45.4045 115.539 46.0867 114.904C46.5594 114.466 47.0247 114.051 47.4967 113.629L47.5935 113.543C47.5136 113.608 47.4429 113.681 47.363 113.746C47.4147 113.698 47.4675 113.651 47.5205 113.604C47.631 113.506 47.7428 113.407 47.8503 113.295C48.5806 112.336 50.0006 112.129 50.9778 112.841L50.9953 112.855C51.0786 112.919 51.1465 112.971 51.2072 113.062C51.9961 113.823 52.1188 115.109 51.4596 116.013C51.0685 116.56 50.5324 117.019 50.0117 117.465C49.854 117.6 49.6977 117.734 49.5472 117.869L49.52 117.895C49.3173 118.087 49.1223 118.273 48.9276 118.475C48.4864 119.014 48.118 119.596 47.7508 120.176C47.7072 120.245 47.6636 120.313 47.6199 120.382C47.6226 120.377 47.6255 120.373 47.6281 120.368C47.4518 120.653 47.276 120.939 47.1001 121.224C46.1486 122.769 45.1946 124.318 44.1513 125.816C43.4488 126.82 42.7373 127.816 41.9892 128.794C41.7036 129.168 41.4099 129.537 41.1158 129.906C40.6489 130.493 40.1813 131.081 39.7446 131.691C39.6418 131.982 39.4758 132.264 39.2459 132.502C38.3881 133.392 36.9377 133.41 36.057 132.561C35.8457 132.357 35.6749 132.116 35.5542 131.851C35.1921 131.706 34.8472 131.512 34.5199 131.292C33.8136 130.817 33.1486 130.291 32.4853 129.766C32.1805 129.524 31.8761 129.283 31.5682 129.048C31.2526 128.81 30.9332 128.572 30.6126 128.333C30.2461 128.06 29.878 127.786 29.5124 127.509C27.9953 126.347 26.4778 125.168 25.1637 123.777C24.4563 123.042 23.8286 122.224 23.3791 121.296C23.2666 121.057 23.16 120.816 23.0528 120.574C22.9275 120.291 22.8017 120.007 22.6653 119.723C22.6094 119.616 22.5443 119.5 22.4794 119.402C22.4885 119.417 22.4977 119.432 22.5071 119.446C22.4887 119.429 22.4798 119.42 22.4794 119.402C21.8907 118.436 22.0562 117.164 22.9835 116.437C23.916 115.69 25.4142 115.825 26.1442 116.811C26.5838 117.412 26.8872 118.099 27.1867 118.778C27.2776 118.984 27.3682 119.19 27.4621 119.391C27.546 119.543 27.6299 119.695 27.7226 119.837C27.8891 120.068 28.0735 120.299 28.2576 120.512C28.8549 121.141 29.4964 121.724 30.1467 122.298C31.2262 123.179 32.3227 124.006 33.4372 124.833L33.9856 125.255C33.9744 125.138 33.9541 125.012 33.943 124.895C33.922 124.725 33.9014 124.553 33.8807 124.38C33.7967 123.681 33.7115 122.971 33.5976 122.279C33.5464 121.957 33.4907 121.635 33.4348 121.313C33.3349 120.736 33.2348 120.158 33.1605 119.575C33.0145 118.496 32.923 117.435 32.8671 116.355C32.813 115.571 32.8493 114.765 32.8845 113.98C32.8894 113.873 32.8942 113.766 32.8987 113.66C32.9626 111.739 33.0445 109.818 33.2256 107.905C33.4215 105.81 34.0425 103.808 34.6727 101.814C35.0306 100.69 35.4336 99.574 35.8367 98.4582C36.6867 96.1628 37.6093 93.9021 38.7047 91.7194C39.0232 91.0831 39.339 90.4454 39.6547 89.8079C40.476 88.1493 41.2968 86.4918 42.1651 84.8615C43.2713 82.7777 44.4591 80.7194 45.6746 78.7057C46.3741 77.5394 47.1011 76.3997 47.837 75.2508C48.4768 74.2749 49.1898 73.3517 49.9028 72.4285C49.929 72.3829 49.964 72.3282 50.0082 72.2824C49.9459 72.3195 49.8858 72.3589 49.8258 72.3982C49.7657 72.4377 49.7055 72.4771 49.643 72.5143C48.5209 73.2378 47.3064 73.8368 46.0532 74.2923C44.7909 74.739 43.4796 74.9793 42.1484 75.1119C40.9522 75.233 39.7557 75.336 38.56 75.4932C38.3553 75.5201 38.1505 75.5476 37.9457 75.5752C35.9212 75.8475 33.896 76.1199 31.8525 75.8055C28.6806 75.314 25.9048 73.3285 23.8159 70.9609C21.9202 68.815 20.3586 66.2125 20.4393 63.2463C20.4979 61.0376 21.0531 58.8827 21.7354 56.7797C21.8156 56.5405 21.8954 56.3008 21.9752 56.061C22.2524 55.2283 22.5302 54.3937 22.8299 53.5697C23.6625 51.3106 24.577 49.0952 25.5822 46.9141C26.1193 45.7328 26.6746 44.5692 27.3207 43.44C27.9059 42.429 28.6093 41.4789 29.3131 40.5469C28.3311 41.0515 27.3207 41.4755 26.282 41.837C25.4491 42.1136 24.6155 42.3542 23.7819 42.5948C22.6525 42.9218 21.5228 43.2309 20.3838 43.5312C17.9538 44.1795 15.4683 44.7568 12.9411 44.5328C11.4248 44.3985 9.90482 44.0659 8.5319 43.3973C7.15896 42.7286 5.9337 41.7599 4.96588 40.5792C3.91482 39.2829 3.01443 37.8486 2.28403 36.3482C1.60015 34.928 1.01421 33.4429 0.6615 31.8995C0.308759 30.3561 0.117827 28.7917 0.196849 27.2043C0.268313 25.6981 0.53801 24.1883 0.953108 22.7479C1.33349 21.3803 1.75875 20.0028 2.30229 18.6862C2.57829 18.0143 2.86317 17.3333 3.1392 16.6614C3.33716 16.1693 3.5733 15.684 3.80568 15.2064L3.8671 15.0801C3.93394 14.9374 3.99931 14.7932 4.06467 14.6491C4.22819 14.2883 4.3917 13.9275 4.57865 13.5893L4.73422 13.3061C5.2905 12.2929 5.83837 11.295 6.44686 10.311C6.56349 10.1244 6.67722 9.935 6.79116 9.74519C7.02788 9.35088 7.26557 8.95493 7.53243 8.57898C7.93654 8.01285 8.33182 7.45594 8.72675 6.88102C9.38533 5.94077 10.1258 5.04409 10.9033 4.20082C11.3805 3.68741 11.8576 3.17404 12.3715 2.69607L12.3787 2.68926C12.9168 2.1859 13.4639 1.67411 14.0939 1.29477C15.0369 0.628636 16.4107 0.855755 17.1302 1.76169C17.9054 2.75667 17.7058 4.15706 16.756 4.94047C16.6689 5.01447 16.5886 5.06679 16.4961 5.11702C16.4967 5.11679 16.4973 5.11661 16.4979 5.11639C16.4934 5.12106 16.4865 5.12344 16.4797 5.12588C16.4739 5.12895 16.4681 5.132 16.4622 5.13508C16.4666 5.13057 16.4731 5.12823 16.4797 5.12588C16.4852 5.12295 16.4907 5.11998 16.4961 5.11702C16.4434 5.13579 16.408 5.15439 16.364 5.18196C16.2041 5.31103 16.0623 5.43977 15.9113 5.55969C15.2118 6.23029 14.5397 6.9275 13.8769 7.63353L13.8478 7.66734C13.4156 8.16955 12.9684 8.6893 12.5904 9.22505C12.1161 9.88226 11.651 10.5482 11.1859 11.2142C11.0383 11.4569 10.8893 11.6997 10.7408 11.9414C10.2204 12.7892 9.69999 13.6371 9.21844 14.5224C8.5907 15.6692 8.01766 16.8512 7.44462 18.0332L7.35376 18.252C6.72845 19.7576 6.10858 21.25 5.61271 22.7976C5.33674 23.7156 5.08559 24.6414 4.89904 25.5978C4.89253 25.6415 4.88487 25.6861 4.87357 25.7307C4.88191 25.6864 4.89042 25.642 4.89904 25.5978C4.90704 25.5439 4.91328 25.4914 4.92232 25.4415C4.79994 26.1376 4.70441 26.8242 4.66326 27.5278C4.65352 27.9785 4.66176 28.4289 4.68839 28.897C4.74317 29.4276 4.81599 29.9579 4.91567 30.4788C5.08152 31.1696 5.2651 31.8421 5.5027 32.5135C5.77796 33.2744 6.10697 34.0162 6.47166 34.7395C6.81702 35.3909 7.19842 36.0417 7.60635 36.665C7.93007 37.1186 8.25343 37.5542 8.61249 37.9712C8.75801 38.1114 8.89986 38.2481 9.04493 38.3835C9.1285 38.4614 9.21317 38.5389 9.30022 38.6164C9.45582 38.7487 9.62027 38.8718 9.79357 38.9858C10.0304 39.1256 10.2581 39.2566 10.4946 39.3784C10.7852 39.4992 11.0666 39.6112 11.3748 39.7137C11.6736 39.7893 11.9904 39.8645 12.298 39.931C12.7589 40.0036 13.2102 40.0494 13.6793 40.0769C13.7832 40.075 13.8865 40.0736 13.9895 40.0723C14.2975 40.0684 14.603 40.0644 14.9132 40.0452C15.5609 39.9792 16.2081 39.8953 16.8455 39.7664C18.1434 39.4786 19.4079 39.1269 20.6859 38.7715L20.9081 38.7097C21.1356 38.6464 21.3632 38.5836 21.5907 38.5208C22.645 38.2299 23.6982 37.9393 24.7444 37.594C25.5947 37.281 26.4083 36.9327 27.2209 36.5303C28.1046 36.0725 28.9509 35.5433 29.7789 34.9965C30.677 34.3402 31.5662 33.6932 32.4364 32.9923C33.3509 32.2457 34.2378 31.4725 35.1247 30.6993C36.9321 29.0033 38.6775 27.2477 40.4229 25.4921ZM47.6883 120.271C47.718 120.223 47.7477 120.175 47.7774 120.127C47.7512 120.173 47.7249 120.214 47.6986 120.255C47.6951 120.26 47.6917 120.265 47.6883 120.271Z" fill="#16BAC5"/>
</svg>
