<svg width="73" height="79" viewBox="0 0 73 79" fill="none" xmlns="http://www.w3.org/2000/svg">
<path d="M51.7733 38.23C51.0533 37.98 50.3833 37.63 49.7233 37.25C48.5433 36.57 47.4633 35.74 46.3633 34.93C46.1633 34.84 45.9633 34.75 45.7633 34.66C45.1833 34.4 44.6233 34.0999 44.0433 33.8199C43.6633 33.6299 43.2933 33.43 42.9233 33.22C42.4033 32.94 41.9233 32.65 41.6433 32.12C41.3433 31.56 41.3133 30.89 41.6433 30.33C41.9433 29.81 42.5533 29.42 43.1733 29.45C43.5433 29.47 43.8633 29.52 44.2133 29.65C44.4233 29.72 44.6433 29.81 44.8533 29.89C45.8033 30.26 46.6733 30.79 47.4933 31.37C47.7233 31.53 47.9533 31.69 48.1733 31.86C49.2933 32.38 50.4333 32.87 51.5833 33.31C51.1533 32.55 50.7433 31.79 50.3533 31C49.9433 30.16 49.5133 29.33 49.1433 28.46C48.7633 27.58 48.3633 26.7 48.0333 25.8C47.2733 23.73 46.5433 21.65 45.8333 19.56C45.5533 18.74 45.3133 17.92 45.0533 17.1C44.8033 16.31 44.5533 15.53 44.3433 14.73C43.9933 13.39 43.6233 12.06 43.3233 10.71C43.1433 9.86996 42.9533 9.03995 42.7733 8.19995C42.4733 6.82995 42.2233 5.45 41.7933 4.12C41.5233 4.44 41.2633 4.78 41.0033 5.13C41.0433 5.07 41.0933 5.01 41.1233 4.94C40.0333 6.57 39.0833 8.25997 38.1433 9.96997C37.1933 11.71 36.2433 13.45 35.2733 15.17C33.4833 18.35 31.4533 21.3799 29.5733 24.5099C28.0333 27.0699 26.5233 29.64 25.1333 32.28C25.0733 32.47 24.9533 32.65 24.8433 32.81C24.3233 33.52 23.2933 33.6899 22.5433 33.2599C21.8133 32.8299 21.4733 31.89 21.7833 31.1C21.8233 30.99 21.8633 30.89 21.9233 30.79C22.3333 29.91 22.8433 29.07 23.3033 28.22C23.7833 27.34 24.2933 26.48 24.7933 25.61C25.6733 24.07 26.6133 22.56 27.5433 21.05C28.5233 19.47 29.5333 17.91 30.4833 16.31C31.5533 14.52 32.5933 12.72 33.6033 10.9C34.5433 9.21996 35.4233 7.51998 36.3733 5.84998C36.8333 5.03998 37.3233 4.25998 37.8333 3.47998C38.3033 2.77998 38.8133 2.10998 39.3733 1.47998C40.0533 0.70998 40.9333 0 42.0033 0C44.3833 0 45.0733 2.72995 45.5633 4.56995C45.8033 5.45995 45.9533 6.35995 46.1533 7.25995C46.2933 7.87995 46.4233 8.5 46.5633 9.12C46.7433 9.93999 46.9333 10.7599 47.1433 11.5699C47.3933 12.5299 47.6133 13.52 47.9133 14.48C48.2933 15.71 48.6833 16.95 49.0633 18.18C49.4033 19.29 49.8033 20.37 50.1733 21.46C50.6733 22.84 51.1533 24.21 51.7233 25.56C52.0233 26.26 52.2833 26.98 52.6233 27.66C52.9733 28.37 53.3233 29.09 53.6733 29.8C54.0433 30.49 54.4233 31.18 54.7933 31.86C54.9033 31.57 55.0033 31.29 55.1033 31C55.3833 30.17 55.6633 29.34 55.9633 28.52C56.3733 27.4 56.7433 26.18 57.3933 25.17C57.9133 24.36 58.9533 24.03 59.8133 24.53C60.6133 25 60.9733 26.14 60.4433 26.95C60.3233 27.12 60.2233 27.3 60.1433 27.49C60.1833 27.42 60.2133 27.35 60.2433 27.29C59.8233 28.22 59.4933 29.19 59.1333 30.15C58.9233 30.77 58.7033 31.4 58.4933 32.02C58.0633 33.29 57.6333 34.63 56.8433 35.73C56.7433 35.87 56.6433 36 56.5233 36.13C56.5033 36.47 56.4033 36.81 56.2133 37.14C55.9533 37.6 55.6033 37.91 55.1533 38.19C54.6733 38.48 54.0833 38.5399 53.5333 38.5699C53.4833 38.5699 53.4433 38.5699 53.3933 38.5699C52.8933 38.5899 52.3033 38.41 51.7733 38.23Z" fill="#E9D2F4"/>
<path d="M49.6933 78.47C49.3533 78.27 48.9933 78.09 48.6433 77.91C48.3033 77.75 47.9633 77.6 47.6033 77.47C45.9333 76.91 44.2233 76.53 42.6133 75.8C41.3433 75.23 40.1633 74.52 39.1133 73.61C38.1833 72.81 37.3033 71.86 37.0033 70.63C36.4733 68.4 38.9333 66.98 40.5833 66.13C40.9733 65.93 41.3633 65.73 41.7633 65.53C42.7133 64.79 43.6833 64.06 44.6933 63.39C45.8133 62.65 47.0333 62.1 48.2433 61.54C48.6133 61.37 48.9933 61.21 49.3633 61.04C49.9233 60.79 50.4832 60.48 51.0732 60.31C51.8333 60.09 52.6833 60.45 53.0732 61.12C53.5033 61.86 53.3433 62.91 52.6233 63.42C50.3533 65.04 47.9033 66.38 45.4133 67.65C46.9433 67.57 48.4433 67.77 49.9433 68.04C50.8133 68.2 51.6833 68.36 52.5533 68.52C53.4233 68.68 54.3033 68.78 55.1833 68.9C56.0332 69.02 56.8833 69.11 57.7333 69.21C58.5533 69.31 59.3633 69.5 60.1833 69.66C62.2933 70.07 64.3333 70.76 66.4333 71.22C66.8833 71.3 67.3333 71.36 67.7933 71.4C68.1133 71.42 68.4233 71.42 68.7433 71.41H68.7533C68.1233 69.86 67.4832 68.32 66.8232 66.78C65.9932 64.87 65.1033 62.99 64.1733 61.12C62.7333 58.41 61.2533 55.71 59.9733 52.92C59.2933 51.44 58.6233 49.97 57.9633 48.49C57.6633 47.8 57.3533 47.11 57.0633 46.42C56.8233 45.87 56.5733 45.31 56.3533 44.74C56.1433 44.45 56.0133 44.09 56.0133 43.7C56.0133 43.66 56.0133 43.61 56.0133 43.57C56.0133 42.16 57.7333 41.25 58.8633 42.17C59.2233 42.46 59.4133 42.82 59.5633 43.23C61.1133 46.95 62.8033 50.61 64.5633 54.23C65.4433 55.94 66.3533 57.64 67.2533 59.35C68.1933 61.11 69.0033 62.95 69.8232 64.76C70.5732 66.43 71.2533 68.13 71.9433 69.83C72.1033 70.24 72.2833 70.64 72.4533 71.04C72.6133 71.42 72.7633 71.81 72.7633 72.23C72.7633 72.75 72.5133 73.3 72.1533 73.68C71.4333 74.44 70.4133 74.73 69.4133 74.88C68.8433 74.97 68.2433 74.95 67.6733 74.92C66.9933 74.88 66.3333 74.79 65.6733 74.65C63.8833 74.27 62.1033 73.75 60.3333 73.27C59.8533 73.18 59.3733 73.09 58.8933 72.99C58.4433 72.9 57.9933 72.79 57.5333 72.73C56.4633 72.6 55.4033 72.48 54.3333 72.33C53.1533 72.17 51.9932 71.99 50.8232 71.77C49.5433 71.53 48.2733 71.28 46.9733 71.16C46.4333 71.13 45.8933 71.14 45.3433 71.16C44.2433 71.25 43.1432 71.34 42.0433 71.39C42.1533 71.46 42.2533 71.54 42.3633 71.62C42.7533 71.87 43.1533 72.1 43.5633 72.31C44.0633 72.55 44.5633 72.77 45.0833 72.96C46.0033 73.27 46.9333 73.54 47.8633 73.81C49.1433 74.17 50.3333 74.73 51.4833 75.38C52.3233 75.86 52.6033 76.98 52.1133 77.8C51.7833 78.36 51.1833 78.67 50.5732 78.67C50.2733 78.71 49.9733 78.63 49.6933 78.47Z" fill="#E9D2F4"/>
<path d="M27.2433 70.43C26.1233 70.23 25.0233 69.94 23.9233 69.66C22.5833 69.32 21.2433 69.0099 19.9033 68.7C18.7233 68.4799 17.5333 68.32 16.3333 68.22C16.3833 68.22 16.4333 68.23 16.4833 68.23C16.4233 68.23 16.3633 68.22 16.3033 68.22C16.2933 68.22 16.2833 68.22 16.2833 68.22C16.2733 68.22 16.2633 68.22 16.2633 68.22C16.2633 68.22 16.2533 68.22 16.2433 68.22C16.2433 68.22 16.2433 68.22 16.2533 68.22C14.9333 68.15 13.6233 68.15 12.3033 68.15C11.4733 68.15 10.6333 68.2099 9.80329 68.2599C9.16329 68.3299 8.51328 68.39 7.86328 68.46C7.27328 68.52 6.68328 68.66 6.09328 68.7599C5.72328 68.84 5.34328 68.92 4.98328 69C4.27328 69.15 3.53329 69.39 2.80329 69.39C2.32329 69.39 1.81328 69.33 1.39328 69.09C0.963283 68.84 0.68328 68.52 0.41328 68.11C0.17328 67.74 0.0732808 67.2499 0.0232808 66.8199C-0.0567192 66.1799 0.0832798 65.52 0.23328 64.9C0.63328 63.23 1.46328 61.67 2.25328 60.15C2.67328 59.35 3.06328 58.53 3.52328 57.74C4.58328 55.93 5.65329 54.12 6.76329 52.34C7.80329 50.69 8.85328 49.05 9.91328 47.42C10.4633 46.58 11.0733 45.7699 11.6433 44.9499C12.2233 44.1299 12.8433 43.33 13.4233 42.5C13.6333 42.18 13.8333 41.87 14.0133 41.54C13.8433 41.56 13.6733 41.57 13.5033 41.59C12.6833 41.91 11.8833 42.26 11.0733 42.6C10.1633 42.99 9.22329 43.33 8.26329 43.6C7.72329 43.75 7.15328 43.85 6.59328 43.92C6.12328 43.97 5.64329 43.9699 5.19329 43.8199C4.60329 43.6199 4.12328 43.2 3.96328 42.59C3.76328 41.88 4.04329 41.19 4.58329 40.71C4.96329 40.39 5.46328 40.24 5.92328 40.06C6.22328 39.94 6.53329 39.82 6.83329 39.71C7.60329 39.42 8.37329 39.16 9.15329 38.92C10.2933 38.57 11.4633 38.29 12.6533 38.12C13.5933 37.76 14.5533 37.46 15.5533 37.36C16.7133 37.25 17.8233 37.49 18.8133 38.11C20.8033 39.35 21.7633 41.74 22.2633 43.93C22.4633 44.82 22.6033 45.74 22.7233 46.65C22.8033 46.69 22.8733 46.74 22.9533 46.8C23.7033 47.38 23.8833 48.53 23.2733 49.28C23.1533 49.42 23.0333 49.5599 22.9033 49.6999C22.7333 49.8799 22.4933 50.01 22.2833 50.15C21.6033 50.59 20.6933 50.4 20.1333 49.87C19.7133 49.47 19.4433 48.9799 19.3733 48.3899C19.3233 48.0299 19.2733 47.6799 19.2233 47.3199C19.1033 46.4799 18.9933 45.64 18.8333 44.8C18.7233 44.32 18.5833 43.84 18.4333 43.37C18.3333 43.1 18.2333 42.85 18.1133 42.59C17.9933 42.36 17.8633 42.13 17.7233 41.91C17.7133 41.9 17.7033 41.89 17.7033 41.87C17.5333 42.39 17.3233 42.89 17.0533 43.36C16.6333 44.12 16.1233 44.82 15.6133 45.52C14.7233 46.76 13.8233 47.99 12.9433 49.23C11.4733 51.52 10.0133 53.8 8.57328 56.11C7.85328 57.27 7.19328 58.47 6.50328 59.65C6.25328 60.09 6.03328 60.54 5.79328 60.99C5.47328 61.61 5.14328 62.24 4.81328 62.86C4.47328 63.59 4.14328 64.3199 3.86328 65.0699C3.80328 65.2599 3.74329 65.45 3.69329 65.64C5.01329 65.35 6.34328 65.04 7.68328 64.9C9.34328 64.73 11.0033 64.59 12.6633 64.6C13.9333 64.6 15.2033 64.61 16.4733 64.69C18.2033 64.8 19.9133 65.07 21.5933 65.46C22.3633 65.64 23.1333 65.81 23.8933 66C25.0733 66.3 26.2533 66.61 27.4433 66.87C28.0533 66.98 28.6633 67.07 29.2733 67.12C29.7033 67.14 30.1333 67.14 30.5533 67.14C31.5133 67.14 32.3233 67.95 32.3233 68.91C32.3233 69.87 31.5233 70.68 30.5533 70.68C29.4533 70.68 28.3533 70.62 27.2433 70.43Z" fill="#E9D2F4"/>
</svg>
