<svg width="65" height="58" viewBox="0 0 65 58" fill="none" xmlns="http://www.w3.org/2000/svg">
<path d="M30.7526 11.4493C30.7747 11.4679 30.7964 11.4868 30.8174 11.5064L30.8153 11.5046L30.8105 11.5003C30.791 11.4833 30.7716 11.4663 30.7526 11.4493Z" fill="#16BAC5"/>
<path fill-rule="evenodd" clip-rule="evenodd" d="M6.33033 56.583C6.21972 55.6916 6.79322 54.9728 7.58761 54.7616L7.55841 54.7676C7.52711 54.7739 7.49501 54.7804 7.46291 54.7888H7.4717C7.44089 54.798 7.41007 54.8096 7.37926 54.8211L7.3455 54.8336C7.32776 54.84 7.31008 54.8462 7.29234 54.8517C7.29427 54.8505 7.29609 54.8482 7.29609 54.844L7.28736 54.8532C7.25708 54.8743 7.2268 54.8925 7.19486 54.9093C7.17123 54.9218 7.14669 54.9335 7.12054 54.9453C7.34003 54.8164 7.54195 54.6784 7.75266 54.5312C8.19165 54.1999 8.62191 53.8503 9.04333 53.4822C9.62278 52.9209 10.1759 52.3321 10.7203 51.7248C10.9305 51.4727 11.1397 51.2202 11.3484 50.9675C11.5535 50.7191 11.758 50.4706 11.9625 50.2222L11.9661 50.2178C12.5772 49.4753 13.1877 48.7336 13.8108 47.9983L13.8233 47.9838C14.2055 47.5377 14.5875 47.0918 14.9609 46.6458C15.0123 46.586 15.0636 46.5242 15.1153 46.4621C15.2226 46.3331 15.3312 46.2025 15.4438 46.0845C15.7125 45.8076 15.9833 45.5307 16.2541 45.2538C16.5233 44.9786 16.7924 44.7034 17.0593 44.4282C18.4816 42.9652 19.9128 41.4931 21.3351 40.0209C21.9443 39.3953 22.5703 38.7918 23.1957 38.189C23.4717 37.9229 23.7476 37.657 24.0218 37.3894C24.4918 36.9287 24.9622 36.4686 25.4326 36.0089L25.9634 35.4903L25.7546 35.3411L25.7602 35.3467C24.9612 34.7854 24.1622 34.2333 23.3457 33.7089C23.0823 33.5432 22.8189 33.3776 22.5467 33.212C21.6248 34.1045 20.703 34.9878 19.7723 35.8711C19.7066 35.9353 19.641 35.9973 19.5754 36.0592C19.5093 36.1215 19.4433 36.1838 19.3772 36.2484C19.3757 36.2484 19.3745 36.2487 19.3735 36.2491C19.3726 36.2494 19.3718 36.2499 19.3711 36.2505C19.3701 36.2512 19.3693 36.2521 19.3684 36.253C19.3662 36.2553 19.3641 36.2576 19.3597 36.2576H19.3684C19.363 36.2633 19.3572 36.2693 19.3497 36.275C19.3451 36.2784 19.3398 36.2818 19.3333 36.2852L19.3157 36.3036C19.3157 36.3036 19.3158 36.3072 19.3137 36.3099C19.3124 36.3115 19.3103 36.3128 19.307 36.3128C18.9425 36.6499 18.5759 36.9869 18.2093 37.3239L18.1569 37.3721C17.7903 37.7091 17.4237 38.0461 17.0593 38.3831C17.0675 38.3773 17.0749 38.3715 17.082 38.3658C17.0974 38.3532 17.1114 38.3405 17.1295 38.3279C14.8742 40.405 12.5025 42.334 10.1356 44.259L9.93884 44.4191C9.34894 44.9009 8.76087 45.3807 8.17301 45.8604L7.89424 46.0878C7.30638 46.5675 6.71831 47.0473 6.12841 47.5291C5.92601 47.6923 5.7243 47.8555 5.52297 48.0184L5.50384 48.0339C5.03044 48.417 4.55871 48.7988 4.08269 49.1761C4.03414 49.2148 3.98494 49.2545 3.93532 49.2946L3.92728 49.301C3.3775 49.7449 2.75992 50.2434 2.05454 50.2434C1.21168 50.2434 0.500488 49.5073 0.500488 48.6148C0.500488 47.9247 0.921931 47.3266 1.51019 47.0966C1.5159 47.0936 1.52161 47.0907 1.52699 47.0873C1.53822 47.0805 1.54813 47.0722 1.55408 47.0598C2.51971 46.3315 3.45488 45.5713 4.39001 44.811L4.43519 44.7742C4.60737 44.6343 4.77949 44.4944 4.95188 44.3547C6.11962 43.4069 7.27851 42.4592 8.44625 41.5023L8.45091 41.4984L8.45252 41.497C10.6893 39.6769 12.926 37.8568 15.0575 35.8988C15.0607 35.8954 15.0639 35.8933 15.0667 35.8915C15.0716 35.8883 15.0751 35.8861 15.0751 35.8804C15.1344 35.819 15.2013 35.7576 15.2682 35.6963L15.2506 35.7147L17.2788 33.8377L17.2876 33.8285C17.2928 33.8285 17.298 33.8253 17.3013 33.8208C17.3037 33.8176 17.3052 33.8139 17.3052 33.8101L17.3074 33.8077C17.3121 33.8028 17.3167 33.798 17.3216 33.7931C17.3343 33.7804 17.3483 33.7676 17.3666 33.7549L17.4796 33.6487C18.205 32.9672 18.9228 32.2928 19.6406 31.6018C19.4197 31.4879 19.1989 31.3725 18.9787 31.2562C18.6648 31.0905 18.3523 30.9229 18.0427 30.7553C16.0233 29.6695 14.2146 28.2433 12.845 26.3295C11.5456 24.5169 10.7992 22.3546 10.7027 20.0911C10.6061 17.8644 10.9398 15.5273 12.1514 13.6503C12.7221 12.7762 13.4332 12.0493 14.2234 11.3868C15.075 10.6691 16.0496 10.0526 17.033 9.57419C17.4544 9.37173 17.8847 9.16007 18.3061 8.95767C19.1753 8.53439 20.0884 8.21232 21.0015 7.91793C22.0726 7.56828 23.1876 7.35667 24.3027 7.24626C25.4616 7.12664 26.6118 7.16342 27.7707 7.25547C29.7638 7.41187 31.9851 7.87193 33.346 9.53735C34.742 11.2488 34.8385 13.6319 34.6278 15.7666C34.4083 18.0944 33.5128 20.2659 32.3538 22.235C31.0105 24.5169 29.2019 26.4215 27.402 28.2986C26.5767 29.1635 25.7514 30.0284 24.9173 30.8749C26.0732 31.6119 27.1905 32.4068 28.3042 33.2046C29.7148 31.8268 31.1243 30.448 32.5295 29.0623C33.3029 28.3009 34.0919 27.5559 34.881 26.8108C35.2742 26.4394 35.6676 26.068 36.0589 25.6946C37.5603 24.2685 39.0616 22.8331 40.563 21.3977C40.6018 21.3603 40.6418 21.3231 40.6822 21.2858L40.726 21.2453C40.7807 21.1949 40.8353 21.1445 40.8878 21.094C40.8785 21.1022 40.8694 21.1104 40.8604 21.1186C42.7167 19.3897 44.581 17.6611 46.4455 15.9322C46.4323 15.9414 46.419 15.953 46.4058 15.9645C46.3927 15.976 46.3795 15.9874 46.3665 15.9966L46.5772 15.8034C46.6081 15.7764 46.6382 15.7487 46.668 15.7206C46.689 15.7008 46.7098 15.6809 46.7305 15.661L46.7364 15.6552L46.7399 15.6521L46.7465 15.6458C46.7916 15.6027 46.8369 15.5597 46.884 15.5186L50.4052 12.2609C50.5018 12.1689 50.5984 12.0769 50.7037 11.9849C51.4764 11.2764 52.249 10.5587 53.0216 9.83179C52.9917 9.79596 52.9598 9.758 52.9277 9.71891C52.915 9.70335 52.9022 9.68757 52.8895 9.67168C52.8687 9.64551 52.8482 9.619 52.8285 9.59255C52.6679 9.38628 52.5051 9.18163 52.3422 8.97693L52.3411 8.97558C51.9521 8.48671 51.5629 7.99756 51.2042 7.4855C51.0053 7.20122 50.8064 6.92126 50.6075 6.63974C50.5167 6.51119 50.4258 6.3823 50.335 6.25252C50.0628 5.86602 49.8082 5.46123 49.5624 5.06558C49.299 4.6331 49.0268 4.11783 48.9565 3.60257C48.8512 2.82964 49.2375 2.05677 49.9311 1.75318C50.2005 1.63429 50.4929 1.57532 50.7757 1.51832C50.8431 1.50473 50.91 1.49125 50.9759 1.4771C52.1348 1.21022 53.2938 0.971041 54.4615 0.741011C54.4878 0.704171 54.5142 0.667386 54.5493 0.630602C55.0322 0.00492746 55.8926 -0.197528 56.5687 0.216537C56.6109 0.244224 56.65 0.27191 56.6878 0.301563C56.7129 0.321218 56.7374 0.341773 56.7619 0.363787C58.1579 0.188963 59.5802 0.124547 60.9762 0.142968C61.7488 0.152178 62.5917 0.216537 63.2853 0.584607C63.6453 0.777796 63.9789 1.04461 64.1808 1.42189C64.4091 1.8359 64.4618 2.39721 64.3389 2.85727C64.2335 3.25292 64.0316 3.59336 63.7945 3.90622C63.8384 4.0902 63.8647 4.28345 63.8735 4.47669C63.9086 4.96433 63.935 5.45202 63.9526 5.93971C63.9877 6.92424 64.0052 7.90872 64.0228 8.89325C64.0294 9.35056 64.0343 9.80787 64.0393 10.2652C64.0541 11.6389 64.0688 13.0127 64.1282 14.3864C64.1721 14.8004 64.2247 15.2145 64.295 15.6285C64.3043 15.6853 64.3145 15.7421 64.3247 15.799L64.3253 15.803C64.3627 16.012 64.4003 16.2223 64.4003 16.4382C64.4003 16.9259 64.2774 17.3399 63.9877 17.7172C63.6628 18.1589 63.0746 18.4441 62.5478 18.3337C62.1791 18.2601 61.8366 18.1589 61.5469 17.9013C61.478 17.8381 61.4091 17.7771 61.3402 17.7162L61.336 17.7124C61.2658 17.6504 61.1956 17.5883 61.1254 17.524C60.9424 17.3625 60.7595 17.201 60.578 17.0395C60.4285 16.9066 60.28 16.7736 60.1333 16.6407C59.6878 16.2432 59.2381 15.85 58.7899 15.4581L58.7882 15.4566C58.5834 15.2776 58.379 15.0988 58.1754 14.9201C58.0307 14.7934 57.885 14.6672 57.7391 14.5409C57.2918 14.1537 56.8431 13.7652 56.4194 13.3559C56.2545 13.1978 56.0868 13.0425 55.919 12.8874C55.6671 12.6543 55.4152 12.4211 55.1727 12.1781C54.3963 12.9052 53.6199 13.6241 52.8434 14.3426L52.7724 14.4084L52.7716 14.4092C52.7561 14.4239 52.7403 14.439 52.7242 14.4538L52.7622 14.4178C52.6406 14.53 52.5179 14.6422 52.3895 14.7544L51.0906 15.9546C50.3125 16.6734 49.5352 17.3914 48.7546 18.1129C48.7612 18.106 48.7677 18.0994 48.7743 18.0931C48.7056 18.158 48.6358 18.2227 48.5614 18.2877C48.5537 18.2958 48.5471 18.3026 48.5412 18.3079C48.5341 18.3144 48.5271 18.3194 48.5175 18.3245L48.5337 18.3075C46.6516 20.0637 44.7694 21.82 42.8708 23.5676C38.8443 27.3602 34.8688 31.2114 30.9053 35.0805C33.1142 36.6861 35.3062 38.3129 37.4374 40.0209C38.8597 41.1526 40.1504 42.45 41.3444 43.8578C41.362 43.8761 41.3707 43.8854 41.3795 43.9038C41.4249 43.9566 41.4709 44.0087 41.5171 44.0608C41.6319 44.1905 41.7472 44.3208 41.8537 44.4651C41.8888 44.5019 41.9151 44.5387 41.9414 44.5755L41.9502 44.5847C41.9551 44.5923 41.9605 44.5999 41.9663 44.6074C41.971 44.6136 41.976 44.6198 41.9809 44.626C41.9919 44.6399 42.0029 44.6537 42.0117 44.6675C42.0134 44.6692 42.015 44.6713 42.0167 44.6735C42.0241 44.6833 42.0325 44.6969 42.0468 44.7043C42.0468 44.7043 42.038 44.6951 42.038 44.6859C42.0676 44.7217 42.0972 44.7568 42.1267 44.7917L42.1983 44.8756L42.2487 44.9344C42.3824 45.09 42.5188 45.2456 42.6565 45.3996C42.763 45.5187 42.8702 45.6368 42.9775 45.7532C43.7117 45.2127 44.4752 44.7205 45.2391 44.2281C45.5806 44.008 45.9221 43.7879 46.2611 43.5633C46.3226 43.5173 46.3753 43.4713 46.4279 43.4346C46.4507 43.4107 46.4718 43.3869 46.4926 43.3631C46.5202 43.3317 46.5473 43.3003 46.5772 43.2689C46.78 42.9974 46.9683 42.7145 47.156 42.4324C47.261 42.2748 47.3657 42.1174 47.4727 41.9623C47.7537 41.5666 48.0522 41.1803 48.4912 40.9686C49.2375 40.6098 50.2472 41.0238 50.5282 41.8336C50.729 42.3946 50.7534 43.0084 50.7775 43.6136C50.7819 43.723 50.7862 43.8321 50.7916 43.9406C50.8091 44.1614 50.8289 44.3821 50.8486 44.6029C50.8683 44.8238 50.8881 45.0447 50.9057 45.2656C50.9379 45.5895 50.9937 45.9134 51.0489 46.2338L51.0745 46.3829C51.0858 46.4493 51.0969 46.5154 51.1076 46.5813C51.3705 47.7202 51.6773 48.8499 51.984 49.9796L51.9843 49.9807L51.9856 49.9858C52.1348 50.5286 52.249 51.0807 52.3631 51.6328C52.4246 51.9272 52.4861 52.2217 52.5475 52.5069C52.609 52.8013 52.7055 53.1234 52.7319 53.427C52.767 53.8687 52.6528 54.3287 52.3982 54.6692C52.2665 55.1292 51.9417 55.4972 51.5115 55.6997C51.1793 55.8616 50.82 55.8668 50.4633 55.8719C50.4146 55.8727 50.366 55.8734 50.3174 55.8745H50.0365C49.896 55.8837 49.7643 55.8837 49.6326 55.8837C49.0356 55.8653 48.4298 55.8193 47.8327 55.7733C47.3499 55.7365 46.8757 55.6445 46.4016 55.5525C45.4446 55.3685 44.4876 55.1936 43.5218 55.1017C43.0477 55.0648 42.5824 55.074 42.1083 55.1017C41.2818 55.1666 40.4609 55.3164 39.6368 55.4669L39.6302 55.468C39.4058 55.509 39.1812 55.55 38.9563 55.5893C38.7171 55.6321 38.4778 55.6667 38.2386 55.7014C38.1462 55.7148 38.0538 55.7282 37.9614 55.742L37.8764 55.7549C37.8169 55.7624 37.7567 55.7707 37.6959 55.7793L37.6091 55.7917C37.2467 55.844 36.8668 55.8984 36.5155 55.847C35.7341 55.7365 35.1458 55.0924 35.0405 54.2827C34.9351 53.427 35.4356 52.6357 35.9185 52.0009C36.632 51.0698 37.5328 50.2971 38.4205 49.5356C38.6032 49.3789 38.7853 49.2227 38.9651 49.0657C39.09 48.9577 39.215 48.8492 39.3401 48.7405L39.3567 48.726C39.7271 48.4041 40.0988 48.0811 40.4752 47.7683C40.2908 47.5566 40.1065 47.345 39.9309 47.1334L39.9327 47.1349C39.7767 46.9624 39.6127 46.7809 39.4743 46.5906C39.4687 46.5847 39.4632 46.578 39.4573 46.5709C39.4447 46.5556 39.4308 46.5387 39.4128 46.5261C39.397 46.5096 39.3844 46.493 39.3711 46.4764L39.3777 46.4801C39.3646 46.4617 39.3514 46.4457 39.3382 46.4296C39.3251 46.4135 39.3119 46.3974 39.2987 46.3789H39.3075L39.0149 46.0251C38.3446 45.2424 37.6269 44.5091 36.893 43.7842C36.0677 43.0665 35.2424 42.358 34.3732 41.6955C33.425 40.9686 32.468 40.2509 31.511 39.5333C30.5332 38.8067 29.551 38.0848 28.5654 37.3676C28.1161 37.8072 27.6668 38.2469 27.2176 38.6867C26.6451 39.2452 26.0747 39.8037 25.5044 40.3622C24.9377 40.917 24.3711 41.4719 23.8023 42.0267C23.2016 42.6178 22.6132 43.2281 22.0268 43.8362L21.6775 44.1982C21.0254 44.8724 20.3712 45.5466 19.7169 46.2208C19.2985 46.652 18.88 47.0832 18.4622 47.5144C18.2226 47.7615 17.9833 48.0088 17.7441 48.256C17.4676 48.5384 17.2083 48.8507 16.9522 49.1592L16.9506 49.1611C16.8902 49.2339 16.8299 49.3065 16.7696 49.3785C16.2691 49.9673 15.7687 50.5655 15.2682 51.1452C15.1486 51.2912 15.0292 51.4376 14.91 51.5843C14.8108 51.7062 14.7118 51.8283 14.6127 51.9505L14.6118 51.9518C13.764 52.997 12.9147 54.044 11.9934 55.0096C11.3963 55.6353 10.7729 56.2058 10.1057 56.7394C9.82625 56.9672 9.52621 57.1734 9.22987 57.3771L9.11353 57.4572C8.7711 57.6872 8.45509 57.8896 8.0512 57.9724C7.96342 57.9908 7.88433 58 7.79655 58C7.09417 58 6.43568 57.3375 6.33033 56.583ZM44.1779 51.8869C44.1122 51.76 44.0621 51.6247 44.0311 51.4856C43.9953 51.5263 43.9584 51.5669 43.9213 51.6079C43.8519 51.6844 43.7814 51.7622 43.7143 51.8437C43.8692 51.8556 44.0238 51.8702 44.1779 51.8869ZM22.0375 29.2463C22.086 29.1955 22.1344 29.147 22.1828 29.0986C22.231 29.0505 22.2791 29.0023 22.3272 28.9519C23.2842 27.9766 24.2324 27.0012 25.1807 26.0075L25.1831 26.005C26.0603 25.0949 26.9374 24.1847 27.7532 23.2195C28.3327 22.511 28.8858 21.7933 29.395 21.0204C29.7726 20.4131 30.115 19.7967 30.4311 19.1618C30.6506 18.6741 30.8525 18.1865 31.0369 17.6804C31.1773 17.2295 31.2915 16.7787 31.3968 16.3186C31.4759 15.8493 31.5373 15.3709 31.5724 14.8924C31.59 14.4324 31.59 13.9815 31.5636 13.5215C31.5529 13.4239 31.5407 13.3263 31.5276 13.2288C31.5087 13.0871 31.4879 12.9454 31.4671 12.8038C31.4766 12.8387 31.4836 12.8765 31.4908 12.9156C31.4968 12.9483 31.5029 12.9818 31.511 13.0154C31.4796 12.8428 31.4413 12.6629 31.3959 12.4953C31.3507 12.3626 31.2971 12.2336 31.2388 12.1045C31.1949 12.0125 31.1422 11.9204 31.0895 11.8284C31.0544 11.7732 31.0105 11.718 30.9666 11.6628C30.8701 11.5616 30.7822 11.4604 30.6681 11.3684C30.6938 11.3953 30.7226 11.4223 30.7526 11.4493C30.7217 11.4232 30.6898 11.3977 30.6576 11.3719L30.6091 11.3329C30.5936 11.3205 30.5782 11.3078 30.5627 11.2948C30.4925 11.2488 30.4135 11.2028 30.3345 11.166L30.2518 11.1286C30.097 11.0587 29.9467 10.9906 29.7901 10.9359C29.6384 10.887 29.4868 10.8463 29.3351 10.8055L29.3321 10.8046C29.2565 10.7843 29.1809 10.764 29.1053 10.7427C28.4995 10.6322 27.8937 10.5495 27.2703 10.4943C26.4889 10.4391 25.7075 10.4298 24.9261 10.4759C24.3203 10.5219 23.7232 10.6139 23.1262 10.7335C22.4063 10.8991 21.7038 11.1108 21.0102 11.35H21.0015C20.062 11.7088 19.1665 12.1412 18.2709 12.5737C17.7441 12.859 17.2261 13.1718 16.7344 13.5123C16.4008 13.7607 16.076 14.0183 15.7599 14.2852C15.5316 14.4968 15.3209 14.7176 15.119 14.9477C14.9609 15.1408 14.8204 15.3433 14.68 15.5458L14.6784 15.5486C14.5911 15.7041 14.5039 15.8595 14.4253 16.0242C14.3376 16.2358 14.2498 16.4382 14.1707 16.6498C14.0917 16.9167 14.0215 17.1835 13.96 17.4596C13.8986 17.8276 13.8459 18.1956 13.8196 18.5637C13.7845 19.0698 13.7844 19.5666 13.802 20.0635C13.8284 20.4407 13.8722 20.818 13.9337 21.1952C14.0039 21.5357 14.0917 21.8669 14.1883 22.189C14.3025 22.511 14.4342 22.8331 14.5834 23.1459C14.7502 23.4588 14.9171 23.7624 15.1102 24.0661C15.3473 24.4157 15.5843 24.7469 15.8477 25.0782C16.1111 25.3818 16.392 25.667 16.6818 25.9431C17.0066 26.2375 17.3403 26.5135 17.6915 26.7712C18.6133 27.4152 19.5879 27.9489 20.5712 28.4734L20.5919 28.4842C20.5883 28.4832 20.5845 28.4826 20.58 28.4826C20.7795 28.5852 20.9804 28.6894 21.1817 28.7945C21.4676 28.9439 21.7541 29.095 22.0375 29.2463Z" fill="#16BAC5"/>
<path d="M39.3711 46.4764C39.3578 46.4682 39.3502 46.4592 39.3426 46.4433C39.349 46.4499 39.3547 46.4566 39.3603 46.4632L39.3711 46.4764Z" fill="#16BAC5"/>
</svg>
