<svg width="203" height="143" viewBox="0 0 203 143" fill="none" xmlns="http://www.w3.org/2000/svg">
<path d="M183.006 5.78886C184.335 3.12925 182.401 0 179.428 0H145.472C143.957 0 142.572 0.85601 141.894 2.21115L114.822 56.3554C114.545 56.9108 114.4 57.5233 114.4 58.1443V139C114.4 141.209 116.191 143 118.4 143H196.2C198.409 143 200.2 141.209 200.2 139V61.2C200.2 58.9909 198.409 57.2 196.2 57.2H163.772C160.799 57.2 158.865 54.0708 160.194 51.4111L183.006 5.78886ZM68.6056 5.78886C69.9354 3.12925 68.0014 0 65.0279 0H31.0721C29.557 0 28.172 0.856009 27.4944 2.21115L0.422292 56.3554C0.144581 56.9108 0 57.5233 0 58.1443V139C0 141.209 1.79086 143 4 143H81.8C84.0091 143 85.8 141.209 85.8 139V61.2C85.8 58.9909 84.0091 57.2 81.8 57.2H49.3721C46.3986 57.2 44.4646 54.0708 45.7944 51.4111L68.6056 5.78886Z" fill="#E9D2F4"/>
</svg>
